<svg xmlns="http://www.w3.org/2000/svg" width="217.334" height="22.712" viewBox="0 0 217.334 22.712"><path d="M18.148.936q-.156.182-.234.169a.947.947,0,0,0-.156-.013.319.319,0,0,0-.2.117.439.439,0,0,1-.325.117.815.815,0,0,1-.845-.468,2.861,2.861,0,0,1-.195-1.1,10.167,10.167,0,0,1,.052-1.105q.052-.468,1.469-6.162t1.417-5.954q-.13.182-.624,1.092t-1.04,1.846l-1.82,3.406a7.807,7.807,0,0,0-.637,1.092,22.76,22.76,0,0,1-1.781,2.626,7.848,7.848,0,0,1-1.56,1.7A3.656,3.656,0,0,1,9.646-.52,1.641,1.641,0,0,1,8.359-1.2,2.308,2.308,0,0,1,7.8-2.7a17.236,17.236,0,0,1,.26-2.47Q9.1-9.75,9.386-10.608A4.909,4.909,0,0,0,9.672-11.7a.474.474,0,0,0-.052-.286.564.564,0,0,0-.156.182,56.365,56.365,0,0,0-3.016,5.85Q2.73.884,2.184,1.508A1.12,1.12,0,0,1,1.378,1,1.809,1.809,0,0,1,.962-.182,3.067,3.067,0,0,1,1.313-1.56a12.06,12.06,0,0,1,.7-1.235q.351-.533.481-.741a1.525,1.525,0,0,0,.182-.6,10.731,10.731,0,0,0,.962-1.69Q4.42-7.046,5.564-9.1q2.418-4.42,3.146-5.434.052-.1.117-.273t.286-.6q.221-.429.429-.767.546-.858.91-.858a1.833,1.833,0,0,1,1.222.637,2.276,2.276,0,0,1,.65,1.7q0,.312-.286,2.262Q11.7-10.816,11-7.579t-.7,3.6q0,.364.182.364.1,0,.312-.234a3.861,3.861,0,0,0,.416-.585q.364-.559.832-1.222t.884-1.313q1.3-2.028,4.212-7.176.26-.39.806-1.248a11.671,11.671,0,0,1,1.378-2.041,1.215,1.215,0,0,1,.793-.208,1.774,1.774,0,0,1,1.118.611,1.809,1.809,0,0,1,.611,1.313,12.437,12.437,0,0,1-.377,2.379q-.377,1.664-.871,3.224-.1.546-.78,3.081a17.027,17.027,0,0,0-.676,3.315v.208A6.74,6.74,0,0,0,18.746-.7,2.974,2.974,0,0,1,18.148.936ZM27.04-5.07a4.037,4.037,0,0,0,.156-.4,2.714,2.714,0,0,1,.2-.455,2.112,2.112,0,0,0,.1-.793q.013-.637-.195-.767a.7.7,0,0,0-.468-.078,2.533,2.533,0,0,0-.6.338,6.446,6.446,0,0,0-2.366,3.562,1.432,1.432,0,0,0,.143.975q.221.325.741.169a2.272,2.272,0,0,0,.936-.559q.416-.4.546-.533t.221-.234a1.285,1.285,0,0,0,.182-.3q.091-.195.143-.286a2.76,2.76,0,0,0,.143-.325Q27.014-4.992,27.04-5.07ZM24.1-8.476a5.742,5.742,0,0,1,2.34-1.352q1.56-.364,2.184.286A2.071,2.071,0,0,1,29.8-7.7a6.8,6.8,0,0,1-1.43,4.524A8.356,8.356,0,0,1,25.714-.754a4.975,4.975,0,0,1-2.392.572,1.658,1.658,0,0,1-1.014-.494,2.7,2.7,0,0,1-1.014-2.158l.052-.6q-.13-.13-.065-.208t.091-.1q.156,0,.1-.247a2.259,2.259,0,0,1,.182-.949,6.356,6.356,0,0,1,.6-1.3A8.575,8.575,0,0,1,24.1-8.476Zm9.23-1.638a1.14,1.14,0,0,1,.832-.26,1.107,1.107,0,0,1,.78.208q.572.494-.806,3.172-.442.884-.286.884a5.83,5.83,0,0,1,1.391-1.352,12.981,12.981,0,0,1,1.391-1q.286-.143.611-.273t.377-.156a2.38,2.38,0,0,1,1.3-.221q.728.065.884.455a.469.469,0,0,0,.312.416l.13.156q0,.208-.364.533a1.257,1.257,0,0,1-.754.351,2.7,2.7,0,0,0-.923.273q-.533.247-1.027.52t-.741.416q-.247.143-.637.377a6.412,6.412,0,0,0-1.3,1.17,5.559,5.559,0,0,0-.806.91,2.4,2.4,0,0,0-.377.949,5.777,5.777,0,0,0-.195.949,2.184,2.184,0,0,1-.39.793,1.168,1.168,0,0,1-.559.455Q31.9-.312,31.46-.7a1.4,1.4,0,0,1-.715-1.287q.091-.689.533-2.561A15.677,15.677,0,0,1,32.1-7.319,14.157,14.157,0,0,1,33.332-10.114ZM43.186-6.37a.488.488,0,0,1,.221-.052q.117,0,.325.312A.652.652,0,0,0,44.3-5.8a1.469,1.469,0,0,0,1.209-.624,1.883,1.883,0,0,0,.481-1.066q0-.936-.52-.936a1.7,1.7,0,0,0-.988.416,3.959,3.959,0,0,0-.962,1.092Zm1.924-4q2.912,0,2.912,2.418A4.275,4.275,0,0,1,46.865-5.3a3.165,3.165,0,0,1-2.34,1.4,2.8,2.8,0,0,1-1.989-.754,3.436,3.436,0,0,0-.442,1.43q0,.546.013.7a2.658,2.658,0,0,0,.091.442.6.6,0,0,0,.637.468,3.009,3.009,0,0,0,.819-.091,2.46,2.46,0,0,0,.455-.169,4.415,4.415,0,0,0,.442-.3,6.143,6.143,0,0,1,.52-.351q.221-.13.429-.26t.286-.182a1.245,1.245,0,0,1,.286-.13,1.255,1.255,0,0,1,.728.234.656.656,0,0,1,.338.533,1.727,1.727,0,0,1-.468.884,2.826,2.826,0,0,1-.962.819l-.286.156a.629.629,0,0,1-.468.312h-.208q-.1.208-.689.416a3.3,3.3,0,0,1-1.1.208q-2.964,0-2.964-3.38a8.9,8.9,0,0,1,1.3-4.238Q43.082-10.374,45.11-10.374ZM59.436-3.9A13.4,13.4,0,0,0,60.7-5.408a4.911,4.911,0,0,0,.845-1.313q0-.195-.4-.351a1.326,1.326,0,0,0-.819-.052,4.889,4.889,0,0,0-2.08,1.781,6.528,6.528,0,0,0-1.508,2.8q-.1.468.13.468a1.474,1.474,0,0,0,.442-.065,1.616,1.616,0,0,0,.468-.26q.26-.2.39-.3t.494-.455Q59.02-3.51,59.436-3.9Zm3.718.364a14.09,14.09,0,0,0-.1,2.054q0,1.43-.26,1.456Q61.672.13,61.308-.312a1.3,1.3,0,0,1-.52-.936q.026-.416.026-.832v-.494q-.13-.052-.364.182-.286.286-.754.676A6.082,6.082,0,0,1,57.837-.143,3.23,3.23,0,0,1,56.03.1a1.469,1.469,0,0,1-1.1-.936A3.154,3.154,0,0,1,54.6-2.626a7.869,7.869,0,0,1,1.274-3.38,5.9,5.9,0,0,1,1.534-1.638Q59.7-9.49,61.464-8.918q.754.364.91-.078A3.712,3.712,0,0,0,62.6-9.5a4.775,4.775,0,0,1,.273-.611q.676-2.028,1.2-3.211t.806-1.859q.884-1.716,1.664-1.2a3.083,3.083,0,0,1,.507.468,1.433,1.433,0,0,1,.247.65A1.809,1.809,0,0,1,67-14.144a34.366,34.366,0,0,0-2.054,4.472q-.026.13-.247.871t-.364,1.469q-.143.728-.3.728A7.452,7.452,0,0,0,63.154-3.536Zm8.138-4.55q-.338-.338-.988.13a2.3,2.3,0,0,0-.715.468,5.869,5.869,0,0,0-.767.78q-.312.39-.182.468-.026.052.065.078a1.305,1.305,0,0,0,.234.039l.273.026a1.842,1.842,0,0,0,.481-.065,2.226,2.226,0,0,0,.7-.3,3.361,3.361,0,0,0,.819-.871Q71.422-7.956,71.292-8.086Zm-.52,3.64a5.271,5.271,0,0,1-1.261.13,2.347,2.347,0,0,1-.975-.13q-.286-.156-.416.39l-.078.572A1.294,1.294,0,0,0,68.38-2.34a.7.7,0,0,0,.65.221,1.463,1.463,0,0,0,.78-.3,6.229,6.229,0,0,0,.728-.676,4.712,4.712,0,0,1,.572-.546q.26-.468,1.3-.182.572.416-.156,1.716a4.29,4.29,0,0,1-.793.884,6.917,6.917,0,0,1-1.053.858,3.472,3.472,0,0,1-2.912.13q-1.95-.78-1.612-3.848a3.34,3.34,0,0,0-.039-1.053.91.91,0,0,0-.26-.442l-.351-.3q-.416-.39-.429-.546a1.052,1.052,0,0,1,.091-.429.764.764,0,0,1,.182-.325,2.661,2.661,0,0,1,.689-.247,1.069,1.069,0,0,1,.312.143q.221.13.221.234.13.26.572-.546l.234-.468a5.345,5.345,0,0,1,.988-1.079,5.843,5.843,0,0,1,1-.728,4.3,4.3,0,0,1,1.079-.338,3.982,3.982,0,0,1,.988-.117,2.981,2.981,0,0,1,1.794,1.066A1.582,1.582,0,0,1,73.5-8.047a2.428,2.428,0,0,1-.208,1.391,3.265,3.265,0,0,1-1.027,1.183A6.137,6.137,0,0,1,70.772-4.446ZM87.048-.936a3.873,3.873,0,0,1-1.391-.3q-.767-.3-.767-.871V-3.718q0-1.04-.182-1.2-.39-.208-1.04.585A20.258,20.258,0,0,0,82.134-2.08Q81.25-.624,80.678-1.014a.947.947,0,0,1-.754-1.248q.676-2.21.936-3.484-.208-.338-.858.1-.078.052-.247.156t-.286.182A3.3,3.3,0,0,0,79.2-5.1a16.9,16.9,0,0,0-1.313,1.859A11.788,11.788,0,0,1,76.57-1.43a1.43,1.43,0,0,1-.338.585.424.424,0,0,1-.442-.013A1.646,1.646,0,0,1,74.7-2.483a16.114,16.114,0,0,1,.754-3.809A3.161,3.161,0,0,0,75.894-7.8a12.84,12.84,0,0,1,.312-1.339,2.917,2.917,0,0,1,.338-.923q.182-.208.754-.143a.828.828,0,0,1,.728.4q.676.7.078,2.392a13.125,13.125,0,0,0-.65,1.742A15.257,15.257,0,0,1,79.118-7.7,3.453,3.453,0,0,1,80.171-8.5a2.314,2.314,0,0,1,.949-.286,1.715,1.715,0,0,1,1.053.611,2.57,2.57,0,0,1,.533,1.391l-.13,1.352a11.6,11.6,0,0,1,1.586-1.69q1.092-.832,1.794-.1a2.244,2.244,0,0,1,.975,1.274,4.25,4.25,0,0,1,.221,1.9,4.67,4.67,0,0,0,.208,1.95.866.866,0,0,1,.091.819Q87.282-.936,87.048-.936Zm7.67-4.134a4.035,4.035,0,0,0,.156-.4,2.715,2.715,0,0,1,.195-.455,2.112,2.112,0,0,0,.1-.793q.013-.637-.195-.767a.7.7,0,0,0-.468-.078,2.533,2.533,0,0,0-.6.338,6.446,6.446,0,0,0-2.366,3.562,1.432,1.432,0,0,0,.143.975q.221.325.741.169a2.272,2.272,0,0,0,.936-.559q.416-.4.546-.533t.221-.234a1.285,1.285,0,0,0,.182-.3q.091-.195.143-.286a2.761,2.761,0,0,0,.143-.325Q94.692-4.992,94.718-5.07ZM91.78-8.476a5.742,5.742,0,0,1,2.34-1.352q1.56-.364,2.184.286A2.071,2.071,0,0,1,97.474-7.7a6.8,6.8,0,0,1-1.43,4.524A8.356,8.356,0,0,1,93.392-.754,4.975,4.975,0,0,1,91-.182a1.658,1.658,0,0,1-1.014-.494,2.7,2.7,0,0,1-1.014-2.158l.052-.6q-.13-.13-.065-.208t.091-.1q.156,0,.1-.247a2.259,2.259,0,0,1,.182-.949,6.356,6.356,0,0,1,.6-1.3A8.575,8.575,0,0,1,91.78-8.476Zm12.142-2.34A2.413,2.413,0,0,1,104.936-11a1.949,1.949,0,0,1,.806.1.851.851,0,0,1,.208-.052q.312,0,.806.52a3.161,3.161,0,0,1,.624.832q0,1.9-.312,1.9-.13,0-.13.156,0,.364-.637.806a2.09,2.09,0,0,1-1.157.442,1.368,1.368,0,0,1-.572-.351.783.783,0,0,1-.286-.559,8.292,8.292,0,0,1,.533-.65,1.824,1.824,0,0,0,.533-1.118q0-.208-.442-.208a8.128,8.128,0,0,0-2.054,1.222q-.156.312-.312.312,0-.026-.039-.026a1.265,1.265,0,0,0-.3.26,4.059,4.059,0,0,0-.533.689,2.065,2.065,0,0,0-.325.767l-.052.078v.13a.541.541,0,0,0-.026.208q0,.416,1.105,1.235a15.177,15.177,0,0,1,1.534,1.248,2.018,2.018,0,0,1,.533.767,1.9,1.9,0,0,1,.234.832,1.491,1.491,0,0,1-.923,1.365,4.7,4.7,0,0,1-2.2.481,4.309,4.309,0,0,1-2.21-.546Q98.41-.7,98.4-1.105t.273-.481a.833.833,0,0,1,.728-.1q.546.1,1.352.208a4.369,4.369,0,0,0,.975-.1q.455-.1.455-.208t-.208-.286a.662.662,0,0,0-.442-.182,4.588,4.588,0,0,0-1.027-.871q-1.027-.767-1.027-1a.075.075,0,0,1,.026-.052v-.13q-.182,0-.338-.494a3.186,3.186,0,0,1-.156-.962,4.425,4.425,0,0,1,1.625-2.951A8.051,8.051,0,0,1,103.922-10.816Zm12.3,7.54-.052.39a.55.55,0,0,0,.338.494,1.068,1.068,0,0,0,.52.169,2.148,2.148,0,0,0,.624-.221,5.031,5.031,0,0,0,.988-.65,7.041,7.041,0,0,1,.689-.52q.143-.078.26-.156a1.168,1.168,0,0,0,.169-.13q.156-.156.234-.078,0,.26.208.039a.52.52,0,0,1,.442-.195,1.179,1.179,0,0,1,.429.13q.195.1.195.182a.4.4,0,0,0,.1.39.748.748,0,0,1-.234.546l-1.04,1.378q-.13-.026-.455.286a.923.923,0,0,1-.611.312.58.58,0,0,1-.208.078q-.156.078-.156.182a3.8,3.8,0,0,1-2.34.442,2.752,2.752,0,0,1-1.144-.13,5.279,5.279,0,0,1-.442-.364,3.8,3.8,0,0,0-.728-.962,4.012,4.012,0,0,1,.026-1.768,11.494,11.494,0,0,1,.832-2.782,4.024,4.024,0,0,1,.663-1.131,8.955,8.955,0,0,1,1.053-1.313,3.507,3.507,0,0,1,1.469-.871,5.088,5.088,0,0,1,1.417-.351,1.734,1.734,0,0,1,1.482.7,2.161,2.161,0,0,1,.585,1.079,2.809,2.809,0,0,1-.013,1.287,1.357,1.357,0,0,1-.871.949.982.982,0,0,1-1.209-.247,1.518,1.518,0,0,1,.039-1.014q.195-.7-.143-.7a.776.776,0,0,0-.52.156,8.021,8.021,0,0,0-2.184,3.042Zm12.246-3.172-.442.13a.562.562,0,0,1-.286-.13l-.416-.52-.442.442a4.7,4.7,0,0,0-1,1.612,6.133,6.133,0,0,0-.455,1.612q-.052.6.091.741a.54.54,0,0,0,.364.156,2.188,2.188,0,0,0,.845-.3,1.63,1.63,0,0,1,.468-.377.469.469,0,0,0,.156-.065.647.647,0,0,0,.078-.117,1.789,1.789,0,0,0,.1-.221,4.828,4.828,0,0,1,.676-1.014,3.554,3.554,0,0,0,.663-.923,1.011,1.011,0,0,0,.091-.585q-.052-.234-.117-.273a.946.946,0,0,0-.182-.078A.818.818,0,0,1,128.466-6.448Zm2.366-2.158a.974.974,0,0,1,.637,0q.429.1.429.26a.931.931,0,0,0,.091.364q.091.208.169.208.26.026.052.416a1.872,1.872,0,0,1-.572.65,2.614,2.614,0,0,0-.676.507.537.537,0,0,0,.026.273,2.444,2.444,0,0,1-.455,2.132A8.733,8.733,0,0,1,128.375-1.4a5.187,5.187,0,0,1-2.509,1.2q-.6.208-1.378-.494a2.6,2.6,0,0,1-1.04-.962,1.745,1.745,0,0,1-.39-1.066,10.572,10.572,0,0,1,1.391-4.147,6.355,6.355,0,0,1,2.769-2.873,2.032,2.032,0,0,1,1.118-.156.964.964,0,0,1,.806.494q.39.754-.182.962-.286,0-.286.234a2.944,2.944,0,0,0,1.066-.052A2.244,2.244,0,0,0,130.832-8.606Zm14.586,7.67a3.873,3.873,0,0,1-1.391-.3q-.767-.3-.767-.871V-3.718q0-1.04-.182-1.2-.39-.208-1.04.585A20.259,20.259,0,0,0,140.5-2.08q-.884,1.456-1.456,1.066a.947.947,0,0,1-.754-1.248q.676-2.21.936-3.484-.208-.338-.858.1-.078.052-.247.156t-.286.182a3.3,3.3,0,0,0-.273.208,16.906,16.906,0,0,0-1.313,1.859A11.787,11.787,0,0,1,134.94-1.43a1.43,1.43,0,0,1-.338.585.424.424,0,0,1-.442-.013,1.646,1.646,0,0,1-1.092-1.625,16.114,16.114,0,0,1,.754-3.809,3.161,3.161,0,0,0,.442-1.508,12.842,12.842,0,0,1,.312-1.339,2.918,2.918,0,0,1,.338-.923q.182-.208.754-.143a.828.828,0,0,1,.728.4q.676.7.078,2.392a13.123,13.123,0,0,0-.65,1.742A15.255,15.255,0,0,1,137.488-7.7a3.453,3.453,0,0,1,1.053-.806,2.314,2.314,0,0,1,.949-.286,1.715,1.715,0,0,1,1.053.611,2.571,2.571,0,0,1,.533,1.391l-.13,1.352a11.6,11.6,0,0,1,1.586-1.69q1.092-.832,1.794-.1a2.244,2.244,0,0,1,.975,1.274,4.25,4.25,0,0,1,.221,1.9,4.67,4.67,0,0,0,.208,1.95.866.866,0,0,1,.091.819Q145.652-.936,145.418-.936Zm2.21-.234-.13-.52q-.624-.312-.442-.858.364-.624,1.313-2.873t1.053-2.587a.884.884,0,0,1,.364-.806q.494-.364,1.04.26a2.359,2.359,0,0,1,.546,1.612,8,8,0,0,1-.585,1.781q-.585,1.469-1.157,2.626a12.385,12.385,0,0,1-.767,1.417.562.562,0,0,1-.455.26Zm3.38-13.156a2.171,2.171,0,0,1,.962.26,5.442,5.442,0,0,0,.676,1.014,2.085,2.085,0,0,1,.546,1.118q0,1.118-1.248,1.118a1.862,1.862,0,0,1-1.183-.624,1.819,1.819,0,0,1-.663-1.326,3,3,0,0,1,.455-.819A5.557,5.557,0,0,0,151.008-14.326ZM159.952-2.47l.13-1.768v-.416q-.078-.52-.338-.52a4.148,4.148,0,0,0-1.742.91,16.355,16.355,0,0,0-3.432,3.12.962.962,0,0,1-.377.3,1.234,1.234,0,0,1-.416.013,1.465,1.465,0,0,1-.741-.52,2.984,2.984,0,0,1-.624-.884,7.646,7.646,0,0,1,1.04-3.068q.13-.416.715-1.807a8.3,8.3,0,0,0,.663-2.145l-.026-.026a.23.23,0,0,1,.26-.26q.052-.078.52-.078a1.63,1.63,0,0,1,.962.364,1.188,1.188,0,0,1,.494,1.014,5.191,5.191,0,0,1-.676,2q-.676,1.352-.676,1.4.416-.286,1.586-1.2,2.678-2.158,3.3-2.158a2.045,2.045,0,0,1,.949.377,1.589,1.589,0,0,1,.715.689l-.1,1.2.052,1.43a4.505,4.505,0,0,1-.1,1.17l.078.156q-.1.1.208.78a3.12,3.12,0,0,1,.312.845q0,.169-.377.52a1.41,1.41,0,0,1-.715.4Q159.952-.676,159.952-2.47Zm11.336-4.758V-7.28a1.2,1.2,0,0,0-.117-.3,1.933,1.933,0,0,0-.39-.52.82.82,0,0,0-.585-.273,7.481,7.481,0,0,0-2.119,1.833Q166.4-4.784,166.4-4.186q0,.286.429.286a4.54,4.54,0,0,0,1.43-.4,2.932,2.932,0,0,0,1.235-.741,3.23,3.23,0,0,0,.286-.39,4.765,4.765,0,0,1,1.066-1.118A.7.7,0,0,0,171.288-7.228Zm1.638,1.456a.777.777,0,0,0-.546.169,1.777,1.777,0,0,0-.364.624,3.606,3.606,0,0,1-.364.715l-.416,1.937q-.338,1.573-.507,2.262a12.237,12.237,0,0,1-.507,1.547,4.323,4.323,0,0,1-1.274,2.47,3.3,3.3,0,0,1-2.106,1.118,3.439,3.439,0,0,1-2.2-.858A2.332,2.332,0,0,1,163.592,2.5q0-.858.728-.858.364,0,1.092.741t1.066.741a1.137,1.137,0,0,0,.611-.169,1.615,1.615,0,0,0,.507-.559q.234-.39.39-.7a5.8,5.8,0,0,0,.338-.962q.182-.65.26-.936.6-2.574.624-2.626a.2.2,0,0,0,.026-.078h-.026a.075.075,0,0,1-.052-.026,6.191,6.191,0,0,1-1.638.7,6.749,6.749,0,0,1-1.885.39,1.214,1.214,0,0,1-1.04-.52,2.249,2.249,0,0,1-.377-1.352v-.156Q162.032,0,164.4-4.342q.962-2.47,1.222-2.5.078,0,.247-.3a1.106,1.106,0,0,0,.169-.4,15.2,15.2,0,0,1,1.4-1.17,6.15,6.15,0,0,1,2.99-1.768,5.457,5.457,0,0,1,1.365.286,2.7,2.7,0,0,1,1.157,1.118,3.527,3.527,0,0,1,.65,1.586,4.393,4.393,0,0,1-.26,1.157Q173.134-5.772,172.926-5.772Zm13.988-4.81a3.174,3.174,0,0,0,.858.26,1.528,1.528,0,0,1,.871.689,1.717,1.717,0,0,1,.416,1.222,2.623,2.623,0,0,1-.442,1.157,1.331,1.331,0,0,1-.767.65q.1,0-.052-.078a2.91,2.91,0,0,1-.338-.182l-.1.052a.837.837,0,0,0-.13-.364.969.969,0,0,1-.1-.559q.026-.325.026-.39a.483.483,0,0,1,.013-.117.063.063,0,0,0-.039-.078,1.751,1.751,0,0,0-.286-.026,2.232,2.232,0,0,0-1.82.546,8.347,8.347,0,0,0-.975.741,2.525,2.525,0,0,0-.455.767,1.249,1.249,0,0,0-.26.6q0,.442,1.768,1.17a1.577,1.577,0,0,1,.767.546q.2.312.247.416a2.948,2.948,0,0,1,.312.754q.208.624.13.7,0,.026.052.078.286.572-.416,1.235A3.049,3.049,0,0,1,184.6.026a9.6,9.6,0,0,1-1.664.156A2.35,2.35,0,0,1,180.908-.7a1.446,1.446,0,0,1-.052-1.352q.182-.364.52-.026a1.458,1.458,0,0,0,.78.208q.442,0,1.079-.039a1.69,1.69,0,0,0,.858-.208.461.461,0,0,0,.221-.351.472.472,0,0,0-.156-.338,6.108,6.108,0,0,1-2-.9,2.358,2.358,0,0,1-1.092-1.339,3.049,3.049,0,0,1,.143-1.612,4.524,4.524,0,0,1,.923-1.612,13.346,13.346,0,0,1,1.248-.78v.026a6.166,6.166,0,0,1,2.574-1.456Q186.784-10.582,186.914-10.582Zm8.06,5.512a4.037,4.037,0,0,0,.156-.4,2.715,2.715,0,0,1,.195-.455,2.112,2.112,0,0,0,.1-.793q.013-.637-.195-.767a.7.7,0,0,0-.468-.078,2.532,2.532,0,0,0-.6.338A6.446,6.446,0,0,0,191.8-3.666a1.432,1.432,0,0,0,.143.975q.221.325.741.169a2.272,2.272,0,0,0,.936-.559q.416-.4.546-.533t.221-.234a1.285,1.285,0,0,0,.182-.3q.091-.195.143-.286a2.757,2.757,0,0,0,.143-.325Q194.948-4.992,194.974-5.07Zm-2.938-3.406a5.742,5.742,0,0,1,2.34-1.352q1.56-.364,2.184.286A2.071,2.071,0,0,1,197.73-7.7a6.8,6.8,0,0,1-1.43,4.524,8.356,8.356,0,0,1-2.652,2.418,4.975,4.975,0,0,1-2.392.572,1.658,1.658,0,0,1-1.014-.494,2.7,2.7,0,0,1-1.014-2.158l.052-.6q-.13-.13-.065-.208t.091-.1q.156,0,.1-.247a2.259,2.259,0,0,1,.182-.949,6.356,6.356,0,0,1,.6-1.3A8.575,8.575,0,0,1,192.036-8.476ZM203.97-6.448l-.442.13a.562.562,0,0,1-.286-.13l-.416-.52-.442.442a4.7,4.7,0,0,0-1,1.612,6.133,6.133,0,0,0-.455,1.612q-.052.6.091.741a.541.541,0,0,0,.364.156,2.188,2.188,0,0,0,.845-.3,1.63,1.63,0,0,1,.468-.377.469.469,0,0,0,.156-.065.647.647,0,0,0,.078-.117,1.787,1.787,0,0,0,.1-.221A4.829,4.829,0,0,1,203.71-4.5a3.554,3.554,0,0,0,.663-.923,1.01,1.01,0,0,0,.091-.585q-.052-.234-.117-.273a.946.946,0,0,0-.182-.078A.819.819,0,0,1,203.97-6.448Zm2.366-2.158a.974.974,0,0,1,.637,0q.429.1.429.26a.931.931,0,0,0,.091.364q.091.208.169.208.26.026.052.416a1.872,1.872,0,0,1-.572.65,2.614,2.614,0,0,0-.676.507.537.537,0,0,0,.026.273,2.444,2.444,0,0,1-.455,2.132A8.733,8.733,0,0,1,203.879-1.4a5.187,5.187,0,0,1-2.509,1.2q-.6.208-1.378-.494a2.6,2.6,0,0,1-1.04-.962,1.745,1.745,0,0,1-.39-1.066,10.572,10.572,0,0,1,1.391-4.147,6.355,6.355,0,0,1,2.769-2.873,2.032,2.032,0,0,1,1.118-.156.964.964,0,0,1,.806.494q.39.754-.182.962-.286,0-.286.234a2.944,2.944,0,0,0,1.066-.052A2.244,2.244,0,0,0,206.336-8.606Zm9.23,6.136.13-1.768v-.416q-.078-.52-.338-.52a4.148,4.148,0,0,0-1.742.91,16.355,16.355,0,0,0-3.432,3.12.962.962,0,0,1-.377.3,1.234,1.234,0,0,1-.416.013,1.465,1.465,0,0,1-.741-.52,2.984,2.984,0,0,1-.624-.884,7.646,7.646,0,0,1,1.04-3.068q.13-.416.715-1.807a8.3,8.3,0,0,0,.663-2.145l-.026-.026a.23.23,0,0,1,.26-.26q.052-.078.52-.078a1.63,1.63,0,0,1,.962.364,1.188,1.188,0,0,1,.494,1.014,5.191,5.191,0,0,1-.676,2q-.676,1.352-.676,1.4.416-.286,1.586-1.2,2.678-2.158,3.3-2.158a2.045,2.045,0,0,1,.949.377,1.589,1.589,0,0,1,.715.689l-.1,1.2L217.8-4.5a4.5,4.5,0,0,1-.1,1.17l.078.156q-.1.1.208.78a3.12,3.12,0,0,1,.312.845q0,.169-.377.52a1.41,1.41,0,0,1-.715.4Q215.566-.676,215.566-2.47Z" transform="translate(-0.962 17.642)"></path></svg>