<svg xmlns="http://www.w3.org/2000/svg" width="53" height="53" viewBox="0 0 53 53"><g transform="translate(-599 -18827.844)"><circle cx="26.5" cy="26.5" r="26.5" transform="translate(599 18827.844)" fill="#82b541"></circle><path d="M22.186,9.314c-.858-.476-3.318-.182-6.273.733-5.171,3.535-9.535,8.742-9.84,17.1-.055.2-.565-.027-.666-.089a11.91,11.91,0,0,1-.784-9.56c.217-.362-.493-.807-.621-.68a14.6,14.6,0,0,0-2.031,2.622A12.733,12.733,0,0,0,24.223,31.829c3.957-7.093.283-21.219-2.037-22.514Z" transform="translate(612.334 18830.914)" fill="#fff"></path></g></svg>