<svg xmlns="http://www.w3.org/2000/svg" xmlns:xlink="http://www.w3.org/1999/xlink" width="1881.306" height="651.152" viewBox="0 0 1881.306 651.152"><defs><linearGradient id="a" x1="0.954" y1="0.5" x2="0" y2="0.5" gradientUnits="objectBoundingBox"><stop offset="0" stop-color="#268aff"></stop><stop offset="1" stop-color="#134580" stop-opacity="0"></stop></linearGradient><linearGradient id="b" x1="0.046" y1="0.5" x2="1" y2="0.5" gradientUnits="objectBoundingBox"><stop offset="0" stop-color="#ff2626"></stop><stop offset="1" stop-color="#134580" stop-opacity="0"></stop></linearGradient><linearGradient id="c" x1="0.046" y1="0.5" x2="1" y2="0.5" gradientUnits="objectBoundingBox"><stop offset="0" stop-color="#26ff71"></stop><stop offset="1" stop-color="#134580" stop-opacity="0"></stop></linearGradient><linearGradient id="d" x1="0.046" y1="0.5" x2="1" y2="0.5" gradientUnits="objectBoundingBox"><stop offset="0" stop-color="#c526ff"></stop><stop offset="1" stop-color="#134580" stop-opacity="0"></stop></linearGradient></defs><g transform="translate(298.75 -1969.162)"><g transform="translate(-298.75 2045.055)" fill="none" opacity="0.131"><path d="M608.826,0a122,122,0,0,1,95.667,46.291L830.564,205.6a122,122,0,0,1,0,151.418L704.493,516.319a122,122,0,0,1-95.667,46.291H281.653a122,122,0,0,1-95.667-46.291L59.915,357.014a122,122,0,0,1,0-151.418L185.986,46.291A122,122,0,0,1,281.653,0Z" stroke="none"></path><path d="M 281.6527709960938 0.99993896484375 C 272.5072021484375 0.99993896484375 263.3558959960938 2.04150390625 254.4530029296875 4.09564208984375 C 245.6585693359375 6.1246337890625 237.077880859375 9.1478271484375 228.949462890625 13.0809326171875 C 220.8209838867188 17.0140380859375 213.1255493164062 21.86663818359375 206.076904296875 27.50372314453125 C 198.9413452148438 33.21026611328125 192.445556640625 39.73992919921875 186.7701416015625 46.9114990234375 L 60.69879150390625 206.2167358398438 C 52.1474609375 217.0223999023438 45.55712890625 229.0809631347656 41.11090087890625 242.0574035644531 C 36.7783203125 254.7019653320312 34.58154296875 267.9068298339844 34.58154296875 281.30517578125 C 34.58154296875 294.7033996582031 36.7783203125 307.9082641601562 41.11077880859375 320.5528564453125 C 45.55712890625 333.5294189453125 52.1474609375 345.5879516601562 60.69879150390625 356.3936157226562 L 186.77001953125 515.69873046875 C 192.4454345703125 522.8703002929688 198.9412231445312 529.4000854492188 206.0767822265625 535.1066284179688 C 213.1254272460938 540.7435913085938 220.8209228515625 545.59619140625 228.9493408203125 549.529296875 C 237.0777587890625 553.4625244140625 245.658447265625 556.485595703125 254.4530029296875 558.5147094726562 C 263.3558959960938 560.5687255859375 272.5072021484375 561.6102905273438 281.6527709960938 561.6102905273438 L 608.8263549804688 561.6102905273438 C 617.971923828125 561.6102905273438 627.1232299804688 560.5687255859375 636.026123046875 558.5147094726562 C 644.8206787109375 556.485595703125 653.4013671875 553.4625244140625 661.52978515625 549.529296875 C 669.658203125 545.59619140625 677.3536376953125 540.7435913085938 684.40234375 535.1066284179688 C 691.5379028320312 529.4000854492188 698.03369140625 522.8703002929688 703.7091064453125 515.69873046875 L 829.7803344726562 356.3936157226562 C 838.3316650390625 345.5879516601562 844.9219970703125 333.5294189453125 849.3682250976562 320.5528564453125 C 853.7008056640625 307.9082641601562 855.8975830078125 294.7035217285156 855.8975830078125 281.30517578125 C 855.8975830078125 267.9068298339844 853.7008056640625 254.7020568847656 849.3682250976562 242.0574951171875 C 844.9219970703125 229.0809631347656 838.3316650390625 217.0223999023438 829.7803344726562 206.2167358398438 L 703.708984375 46.9114990234375 C 698.0335693359375 39.73992919921875 691.5379028320312 33.21026611328125 684.40234375 27.50372314453125 C 677.3535766601562 21.86663818359375 669.6580810546875 17.0140380859375 661.52978515625 13.0809326171875 C 653.4013671875 9.1478271484375 644.8206787109375 6.1246337890625 636.0262451171875 4.09564208984375 C 627.1233520507812 2.04150390625 617.9720458984375 0.99993896484375 608.826416015625 0.99993896484375 L 281.6527709960938 0.99993896484375 M 281.6527709960938 -6.103515625e-05 L 608.826416015625 -6.103515625e-05 C 646.11376953125 -6.103515625e-05 681.3538818359375 17.05181884765625 704.4931030273438 46.29095458984375 L 830.564453125 205.5961608886719 C 865.6752319335938 249.9627380371094 865.6752319335938 312.6476135253906 830.564453125 357.01416015625 L 704.4932250976562 516.3192749023438 C 681.3538818359375 545.5585327148438 646.11376953125 562.6102905273438 608.8263549804688 562.6102905273438 L 281.6527709960938 562.6102905273438 C 244.3653564453125 562.6102905273438 209.125244140625 545.5585327148438 185.9859008789062 516.3192749023438 L 59.9146728515625 357.01416015625 C 24.80377197265625 312.6476135253906 24.80389404296875 249.9626159667969 59.9146728515625 205.5961608886719 L 185.9860229492188 46.29095458984375 C 209.1253662109375 17.05181884765625 244.365478515625 -6.103515625e-05 281.6527709960938 -6.103515625e-05 Z" stroke="none" fill="#fff"></path></g><g transform="translate(364.05 2057.704)" fill="none" opacity="0.131"><path d="M608.826,0a122,122,0,0,1,95.667,46.291L830.564,205.6a122,122,0,0,1,0,151.418L704.493,516.319a122,122,0,0,1-95.667,46.291H281.653a122,122,0,0,1-95.667-46.291L59.915,357.014a122,122,0,0,1,0-151.418L185.986,46.291A122,122,0,0,1,281.653,0Z" stroke="none"></path><path d="M 281.6527709960938 0.99993896484375 C 272.5072021484375 0.99993896484375 263.3558959960938 2.04150390625 254.4530029296875 4.09564208984375 C 245.6585693359375 6.1246337890625 237.077880859375 9.1478271484375 228.949462890625 13.0809326171875 C 220.8209838867188 17.0140380859375 213.1255493164062 21.86663818359375 206.076904296875 27.50372314453125 C 198.9413452148438 33.21026611328125 192.445556640625 39.73992919921875 186.7701416015625 46.9114990234375 L 60.69879150390625 206.2167358398438 C 52.1474609375 217.0223999023438 45.55712890625 229.0809631347656 41.11090087890625 242.0574035644531 C 36.7783203125 254.7019653320312 34.58154296875 267.9068298339844 34.58154296875 281.30517578125 C 34.58154296875 294.7033996582031 36.7783203125 307.9082641601562 41.11077880859375 320.5528564453125 C 45.55712890625 333.5294189453125 52.1474609375 345.5879516601562 60.69879150390625 356.3936157226562 L 186.77001953125 515.69873046875 C 192.4454345703125 522.8703002929688 198.9412231445312 529.4000854492188 206.0767822265625 535.1066284179688 C 213.1254272460938 540.7435913085938 220.8209228515625 545.59619140625 228.9493408203125 549.529296875 C 237.0777587890625 553.4625244140625 245.658447265625 556.485595703125 254.4530029296875 558.5147094726562 C 263.3558959960938 560.5687255859375 272.5072021484375 561.6102905273438 281.6527709960938 561.6102905273438 L 608.8263549804688 561.6102905273438 C 617.971923828125 561.6102905273438 627.1232299804688 560.5687255859375 636.026123046875 558.5147094726562 C 644.8206787109375 556.485595703125 653.4013671875 553.4625244140625 661.52978515625 549.529296875 C 669.658203125 545.59619140625 677.3536376953125 540.7435913085938 684.40234375 535.1066284179688 C 691.5379028320312 529.4000854492188 698.03369140625 522.8703002929688 703.7091064453125 515.69873046875 L 829.7803344726562 356.3936157226562 C 838.3316650390625 345.5879516601562 844.9219970703125 333.5294189453125 849.3682250976562 320.5528564453125 C 853.7008056640625 307.9082641601562 855.8975830078125 294.7035217285156 855.8975830078125 281.30517578125 C 855.8975830078125 267.9068298339844 853.7008056640625 254.7020568847656 849.3682250976562 242.0574951171875 C 844.9219970703125 229.0809631347656 838.3316650390625 217.0223999023438 829.7803344726562 206.2167358398438 L 703.708984375 46.9114990234375 C 698.0335693359375 39.73992919921875 691.5379028320312 33.21026611328125 684.40234375 27.50372314453125 C 677.3535766601562 21.86663818359375 669.6580810546875 17.0140380859375 661.52978515625 13.0809326171875 C 653.4013671875 9.1478271484375 644.8206787109375 6.1246337890625 636.0262451171875 4.09564208984375 C 627.1233520507812 2.04150390625 617.9720458984375 0.99993896484375 608.826416015625 0.99993896484375 L 281.6527709960938 0.99993896484375 M 281.6527709960938 -6.103515625e-05 L 608.826416015625 -6.103515625e-05 C 646.11376953125 -6.103515625e-05 681.3538818359375 17.05181884765625 704.4931030273438 46.29095458984375 L 830.564453125 205.5961608886719 C 865.6752319335938 249.9627380371094 865.6752319335938 312.6476135253906 830.564453125 357.01416015625 L 704.4932250976562 516.3192749023438 C 681.3538818359375 545.5585327148438 646.11376953125 562.6102905273438 608.8263549804688 562.6102905273438 L 281.6527709960938 562.6102905273438 C 244.3653564453125 562.6102905273438 209.125244140625 545.5585327148438 185.9859008789062 516.3192749023438 L 59.9146728515625 357.01416015625 C 24.80377197265625 312.6476135253906 24.80389404296875 249.9626159667969 59.9146728515625 205.5961608886719 L 185.9860229492188 46.29095458984375 C 209.1253662109375 17.05181884765625 244.365478515625 -6.103515625e-05 281.6527709960938 -6.103515625e-05 Z" stroke="none" fill="#fff"></path></g><g transform="translate(692.077 1969.162)" fill="none" opacity="0.131"><path d="M608.826,0a122,122,0,0,1,95.667,46.291L830.564,205.6a122,122,0,0,1,0,151.418L704.493,516.319a122,122,0,0,1-95.667,46.291H281.653a122,122,0,0,1-95.667-46.291L59.915,357.014a122,122,0,0,1,0-151.418L185.986,46.291A122,122,0,0,1,281.653,0Z" stroke="none"></path><path d="M 281.6527709960938 0.99993896484375 C 272.5072021484375 0.99993896484375 263.3558959960938 2.04150390625 254.4530029296875 4.09564208984375 C 245.6585693359375 6.1246337890625 237.077880859375 9.1478271484375 228.949462890625 13.0809326171875 C 220.8209838867188 17.0140380859375 213.1255493164062 21.86663818359375 206.076904296875 27.50372314453125 C 198.9413452148438 33.21026611328125 192.445556640625 39.73992919921875 186.7701416015625 46.9114990234375 L 60.69879150390625 206.2167358398438 C 52.1474609375 217.0223999023438 45.55712890625 229.0809631347656 41.11090087890625 242.0574035644531 C 36.7783203125 254.7019653320312 34.58154296875 267.9068298339844 34.58154296875 281.30517578125 C 34.58154296875 294.7033996582031 36.7783203125 307.9082641601562 41.11077880859375 320.5528564453125 C 45.55712890625 333.5294189453125 52.1474609375 345.5879516601562 60.69879150390625 356.3936157226562 L 186.77001953125 515.69873046875 C 192.4454345703125 522.8703002929688 198.9412231445312 529.4000854492188 206.0767822265625 535.1066284179688 C 213.1254272460938 540.7435913085938 220.8209228515625 545.59619140625 228.9493408203125 549.529296875 C 237.0777587890625 553.4625244140625 245.658447265625 556.485595703125 254.4530029296875 558.5147094726562 C 263.3558959960938 560.5687255859375 272.5072021484375 561.6102905273438 281.6527709960938 561.6102905273438 L 608.8263549804688 561.6102905273438 C 617.971923828125 561.6102905273438 627.1232299804688 560.5687255859375 636.026123046875 558.5147094726562 C 644.8206787109375 556.485595703125 653.4013671875 553.4625244140625 661.52978515625 549.529296875 C 669.658203125 545.59619140625 677.3536376953125 540.7435913085938 684.40234375 535.1066284179688 C 691.5379028320312 529.4000854492188 698.03369140625 522.8703002929688 703.7091064453125 515.69873046875 L 829.7803344726562 356.3936157226562 C 838.3316650390625 345.5879516601562 844.9219970703125 333.5294189453125 849.3682250976562 320.5528564453125 C 853.7008056640625 307.9082641601562 855.8975830078125 294.7035217285156 855.8975830078125 281.30517578125 C 855.8975830078125 267.9068298339844 853.7008056640625 254.7020568847656 849.3682250976562 242.0574951171875 C 844.9219970703125 229.0809631347656 838.3316650390625 217.0223999023438 829.7803344726562 206.2167358398438 L 703.708984375 46.9114990234375 C 698.0335693359375 39.73992919921875 691.5379028320312 33.21026611328125 684.40234375 27.50372314453125 C 677.3535766601562 21.86663818359375 669.6580810546875 17.0140380859375 661.52978515625 13.0809326171875 C 653.4013671875 9.1478271484375 644.8206787109375 6.1246337890625 636.0262451171875 4.09564208984375 C 627.1233520507812 2.04150390625 617.9720458984375 0.99993896484375 608.826416015625 0.99993896484375 L 281.6527709960938 0.99993896484375 M 281.6527709960938 -6.103515625e-05 L 608.826416015625 -6.103515625e-05 C 646.11376953125 -6.103515625e-05 681.3538818359375 17.05181884765625 704.4931030273438 46.29095458984375 L 830.564453125 205.5961608886719 C 865.6752319335938 249.9627380371094 865.6752319335938 312.6476135253906 830.564453125 357.01416015625 L 704.4932250976562 516.3192749023438 C 681.3538818359375 545.5585327148438 646.11376953125 562.6102905273438 608.8263549804688 562.6102905273438 L 281.6527709960938 562.6102905273438 C 244.3653564453125 562.6102905273438 209.125244140625 545.5585327148438 185.9859008789062 516.3192749023438 L 59.9146728515625 357.01416015625 C 24.80377197265625 312.6476135253906 24.80389404296875 249.9626159667969 59.9146728515625 205.5961608886719 L 185.9860229492188 46.29095458984375 C 209.1253662109375 17.05181884765625 244.365478515625 -6.103515625e-05 281.6527709960938 -6.103515625e-05 Z" stroke="none" fill="#fff"></path></g><g transform="translate(162.933 2072.231)" style="mix-blend-mode:luminosity;isolation:isolate"><rect width="47.222" height="4.216" transform="translate(0 532.604)" fill="url(#a)"></rect><rect width="47.222" height="4.216" transform="translate(633.522 304.377) rotate(50)" fill="url(#b)"></rect><rect width="47.222" height="4.216" transform="translate(946.907 80.993) rotate(50)" fill="url(#c)"></rect><rect width="47.222" height="4.216" transform="matrix(-0.616, -0.788, 0.788, -0.616, 256.485, 39.808)" fill="url(#d)"></rect></g></g></svg>