<svg xmlns="http://www.w3.org/2000/svg" width="81.743" height="19.06" viewBox="0 0 81.743 19.06"><path d="M-40.381,0H-31.1V-3.168h-5.72V-15.4h-3.564Zm13.816,0H-23V-15.4h-3.564Zm24.31-7.7a7.876,7.876,0,0,0-2.332-5.871,7.876,7.876,0,0,0-5.9-2.269,7.876,7.876,0,0,0-5.9,2.269A7.876,7.876,0,0,0-18.711-7.7a7.876,7.876,0,0,0,2.332,5.871A7.876,7.876,0,0,0-10.483.44h.066l2.09,2.772L-5.2,1.628-6.721-.352A7.879,7.879,0,0,0-2.255-7.7Zm-8.228,4.95c-2.948,0-4.532-2.266-4.51-4.95-.022-2.684,1.562-4.95,4.51-4.95,2.926,0,4.51,2.266,4.51,4.95s-1.584,4.95-4.51,4.95ZM7.865.4c3.784,0,6.226-2.024,6.226-5.61V-15.4H10.527v9.966a2.488,2.488,0,0,1-.686,2,2.488,2.488,0,0,1-1.976.75,2.5,2.5,0,0,1-1.973-.754,2.5,2.5,0,0,1-.692-2V-15.4H1.661V-5.214C1.661-1.628,4.081.4,7.865.4ZM18.931,0H22.5V-15.4H18.931Zm8.756,0H33.5a7.453,7.453,0,0,0,5.623-2.12A7.453,7.453,0,0,0,41.354-7.7a7.466,7.466,0,0,0-2.235-5.576A7.466,7.466,0,0,0,33.5-15.4H27.687Zm3.564-2.992v-9.416h1.914c3.036,0,4.51,2.266,4.51,4.708S36.2-2.992,33.165-2.992Z" transform="translate(40.384 15.848)" fill="#fff"></path></svg>