<svg xmlns="http://www.w3.org/2000/svg" xmlns:xlink="http://www.w3.org/1999/xlink" width="140.495" height="44.023" viewBox="0 0 140.495 44.023"><defs><linearGradient id="a" y1="0.204" x2="0.839" y2="0.944" gradientUnits="objectBoundingBox"><stop offset="0" stop-color="#82e2f4"></stop><stop offset="0.502" stop-color="#8a8aed"></stop><stop offset="1" stop-color="#4157ff"></stop></linearGradient></defs><g transform="translate(-0.406 9.691)"><g transform="translate(0.406 -9.692)"><path d="M22.418.407h0A22.011,22.011,0,0,0,.406,22.418h0A22.011,22.011,0,0,0,22.417,44.429h0A22.011,22.011,0,0,0,44.429,22.419h0A22.011,22.011,0,0,0,22.418.407Z" transform="translate(-0.406 -0.407)" fill="url(#a)"></path><path d="M15.3,20.8l.483-.1a.6.6,0,0,0,0-1.172l-.483-.1a3.1,3.1,0,0,1-2.418-2.418l-.1-.483a.6.6,0,0,0-1.172,0l-.1.483A3.095,3.095,0,0,1,9.1,19.43l-.483.1a.6.6,0,0,0,0,1.172l.483.1a3.095,3.095,0,0,1,2.418,2.418l.1.483a.6.6,0,0,0,1.172,0l.1-.483A3.1,3.1,0,0,1,15.3,20.8Z" transform="translate(3.523 7.544)" fill="#fff"></path><path d="M24.57,16.14l1.779-.361a.786.786,0,0,0,0-1.541l-1.779-.361A4.451,4.451,0,0,1,21.094,10.4l-.361-1.779a.785.785,0,0,0-1.539,0L18.833,10.4a4.449,4.449,0,0,1-3.476,3.477l-1.779.361a.786.786,0,0,0,0,1.541l1.779.361a4.449,4.449,0,0,1,3.476,3.477l.361,1.779a.785.785,0,0,0,1.539,0l.361-1.779A4.451,4.451,0,0,1,24.57,16.14Z" transform="translate(5.97 3.449)" fill="#fff"></path></g><g transform="translate(58.811 1.967)"><path d="M.9,3.706V-8.488H4.236V-6.74A4.025,4.025,0,0,1,5.525-8.166a3.639,3.639,0,0,1,2.163-.621,3.894,3.894,0,0,1,2.243.552,3.184,3.184,0,0,1,1.162,1.5A3.768,3.768,0,0,1,12.519-8.2,4.3,4.3,0,0,1,14.8-8.788,3.91,3.91,0,0,1,17.81-7.672a4.732,4.732,0,0,1,1.035,3.325V3.706H15.3V-3.473A3.146,3.146,0,0,0,14.9-5.3a1.514,1.514,0,0,0-1.3-.541,1.777,1.777,0,0,0-.978.288,2.012,2.012,0,0,0-.713.817,2.8,2.8,0,0,0-.265,1.265V3.706H8.1V-3.473A3.146,3.146,0,0,0,7.7-5.3a1.542,1.542,0,0,0-1.323-.541,1.721,1.721,0,0,0-.966.288,2.045,2.045,0,0,0-.7.817,2.8,2.8,0,0,0-.265,1.265V3.706ZM24.6,4A4.638,4.638,0,0,1,22.354,3.5,3.438,3.438,0,0,1,20.94,2.107,4.04,4.04,0,0,1,20.456.139a3.483,3.483,0,0,1,1.116-2.784,5.037,5.037,0,0,1,3.371-.966h3.451v-.506a1.857,1.857,0,0,0-.518-1.518,2.244,2.244,0,0,0-1.438-.414,2.449,2.449,0,0,0-1.288.265,1.049,1.049,0,0,0-.46.863H21.147a3.7,3.7,0,0,1,.7-1.979,4.223,4.223,0,0,1,1.818-1.38,7.344,7.344,0,0,1,2.887-.506,7.649,7.649,0,0,1,2.83.483,3.875,3.875,0,0,1,1.9,1.553,5.3,5.3,0,0,1,.679,2.864V.6q0,.966.046,1.691t.138,1.415H28.762q-.023-.391-.058-.69a6.583,6.583,0,0,1-.035-.736A4.285,4.285,0,0,1,27.14,3.51,5.64,5.64,0,0,1,24.6,4ZM25.748,1.5a3.2,3.2,0,0,0,1.357-.276,2.13,2.13,0,0,0,.943-.84A2.4,2.4,0,0,0,28.394-.9V-1.4H25.633a1.5,1.5,0,0,0-1.162.414,1.357,1.357,0,0,0-.38.943,1.614,1.614,0,0,0,.38,1.116A1.642,1.642,0,0,0,25.748,1.5ZM39.438,8.606a8.93,8.93,0,0,1-3.164-.46A3.354,3.354,0,0,1,34.548,6.8a4.579,4.579,0,0,1-.633-2.059h3.612a1.685,1.685,0,0,0,.518.782,2.06,2.06,0,0,0,1.392.368,3.019,3.019,0,0,0,2.082-.633,2.586,2.586,0,0,0,.7-2.013V1.934A4.149,4.149,0,0,1,40.668,3.3a4.3,4.3,0,0,1-1.967.472,5.409,5.409,0,0,1-2.772-.69A4.55,4.55,0,0,1,34.1,1.037a8,8,0,0,1-.644-3.428v-.46a7.512,7.512,0,0,1,.633-3.256,4.445,4.445,0,0,1,1.818-2,5.529,5.529,0,0,1,2.8-.679,4.342,4.342,0,0,1,2.381.61A4.441,4.441,0,0,1,42.5-6.832V-8.488h3.267V2.9a5.575,5.575,0,0,1-1.53,4.279A6.858,6.858,0,0,1,39.438,8.606ZM39.553.853A2.667,2.667,0,0,0,40.91.507a2.506,2.506,0,0,0,.955-1,3.2,3.2,0,0,0,.357-1.553V-3.2a2.768,2.768,0,0,0-.357-1.461,2.387,2.387,0,0,0-.955-.9,2.9,2.9,0,0,0-1.357-.311,2.3,2.3,0,0,0-1.772.748,3.244,3.244,0,0,0-.69,2.266v.46a3.646,3.646,0,0,0,.7,2.416A2.212,2.212,0,0,0,39.553.853Zm8.513,2.853V-8.488h3.543V3.706ZM49.837-9.639a2.124,2.124,0,0,1-1.53-.518,1.752,1.752,0,0,1-.541-1.323,1.752,1.752,0,0,1,.541-1.323,2.124,2.124,0,0,1,1.53-.518,2.124,2.124,0,0,1,1.53.518,1.752,1.752,0,0,1,.541,1.323,1.752,1.752,0,0,1-.541,1.323A2.124,2.124,0,0,1,49.837-9.639ZM59.661,4a7.154,7.154,0,0,1-3.2-.69,5.1,5.1,0,0,1-2.209-2.094,6.939,6.939,0,0,1-.805-3.5v-.46a6.135,6.135,0,0,1,.84-3.29,5.455,5.455,0,0,1,2.255-2.059,6.919,6.919,0,0,1,3.118-.7,6.75,6.75,0,0,1,3.083.633,4.731,4.731,0,0,1,1.91,1.691,5,5,0,0,1,.759,2.347H61.755A2.241,2.241,0,0,0,61.1-5.394a2.071,2.071,0,0,0-1.438-.449,2.56,2.56,0,0,0-1.323.345,2.354,2.354,0,0,0-.92,1.024,3.939,3.939,0,0,0-.334,1.737v.46a4.67,4.67,0,0,0,.322,1.864A2.34,2.34,0,0,0,58.3.68a2.524,2.524,0,0,0,1.357.357A2.206,2.206,0,0,0,61.03.611a1.988,1.988,0,0,0,.725-1.277h3.658a4.8,4.8,0,0,1-.828,2.485,4.726,4.726,0,0,1-1.99,1.622A7.1,7.1,0,0,1,59.661,4Zm11.412-.069a4.78,4.78,0,0,1-2.266-.495,3.407,3.407,0,0,1-1.415-1.357A3.91,3.91,0,0,1,66.908.139a3.071,3.071,0,0,1,1.07-2.623,5.036,5.036,0,0,1,3.071-.805h3.957v-.828a2.739,2.739,0,0,0-.7-2.163,3.177,3.177,0,0,0-2.105-.6,2.983,2.983,0,0,0-1.91.495,1.687,1.687,0,0,0-.667,1.116H67.6a3.167,3.167,0,0,1,.667-1.76A4.15,4.15,0,0,1,69.9-8.258a5.9,5.9,0,0,1,2.416-.46,6.4,6.4,0,0,1,2.508.449,3.406,3.406,0,0,1,1.634,1.4,4.844,4.844,0,0,1,.575,2.519V.6q0,.966.012,1.691a12.16,12.16,0,0,0,.1,1.415H75.375q-.069-.529-.092-1t-.023-1.07A4.076,4.076,0,0,1,73.7,3.268,4.9,4.9,0,0,1,71.073,3.936ZM71.51,2.1a4.368,4.368,0,0,0,1.76-.345A2.956,2.956,0,0,0,74.535.738,2.758,2.758,0,0,0,75.007-.9v-.828H71.395a3.058,3.058,0,0,0-1.772.449A1.6,1.6,0,0,0,68.979.139a1.81,1.81,0,0,0,.61,1.4A2.8,2.8,0,0,0,71.51,2.1ZM80.6,3.706V-8.488h2.025V3.706ZM81.61-10.1a1.341,1.341,0,0,1-.989-.391,1.341,1.341,0,0,1-.391-.989,1.341,1.341,0,0,1,.391-.989,1.341,1.341,0,0,1,.989-.391,1.341,1.341,0,0,1,.989.391,1.341,1.341,0,0,1,.391.989,1.341,1.341,0,0,1-.391.989A1.341,1.341,0,0,1,81.61-10.1Z" transform="translate(-0.9 13.32)" fill="#fff"></path></g></g></svg>