<svg xmlns="http://www.w3.org/2000/svg" width="46.083" height="53.361" viewBox="0 0 46.083 53.361"><g transform="matrix(0.951, -0.309, 0.309, 0.951, -3.303, 14.283)"><path d="M10.677,30.388q-.263-.258-.53-.515c-1.814-1.739-3.614-3.479-5.3-5.344A9.476,9.476,0,0,0,2.9,22.751a2.625,2.625,0,0,0-1.645-.39,1.253,1.253,0,0,0-1.063.848,1.989,1.989,0,0,0-.109.527,10.1,10.1,0,0,0,.009,1.157c.135,1.376.27,2.691.517,4.052.227,1.252.383,2.515.628,3.765a32.133,32.133,0,0,0,1.525,5.454,1.285,1.285,0,0,0,2.4-.924,29.551,29.551,0,0,1-1.4-5.023c-.243-1.239-.4-2.49-.622-3.731-.146-.807-.251-1.6-.339-2.4l.147.165c1.73,1.91,3.571,3.693,5.429,5.474.7.667,1.366,1.353,2.072,2.008a6.325,6.325,0,0,0,.451.6,1.539,1.539,0,0,0,.652.4,1.28,1.28,0,0,0,1.5-.481,3,3,0,0,0,.525-1.906,25.648,25.648,0,0,0-.527-3.223c-.561-4.235-1.47-8.453-1.711-12.724a1.284,1.284,0,1,0-2.565.145c.245,4.336,1.159,8.618,1.729,12.917C10.522,29.691,10.6,30.017,10.677,30.388Z" transform="translate(0 -4.702)" fill="#fff" fill-rule="evenodd"></path><path d="M28.894,11.759a9.8,9.8,0,0,0-4.086,1.723,6.539,6.539,0,0,0-2.068,4.265,25.207,25.207,0,0,0,.331,6.367,32.475,32.475,0,0,0,.438,3.286,5.13,5.13,0,0,0,1.2,2.426,3.373,3.373,0,0,0,3.811.452A8.578,8.578,0,0,0,32.348,27.1a1.285,1.285,0,0,0-2.3-1.145A5.58,5.58,0,0,1,27.56,27.9a2.443,2.443,0,0,1-.7.186c-.116.01-.233.026-.312-.054a3.192,3.192,0,0,1-.636-1.691c-.157-.907-.2-1.854-.3-2.567a22.431,22.431,0,0,1-.331-5.691,4.015,4.015,0,0,1,1.191-2.645,7.3,7.3,0,0,1,3.073-1.192,1.285,1.285,0,0,0-.658-2.484Z" transform="translate(-6.992 -3.626)" fill="#fff" fill-rule="evenodd"></path><path d="M29.586,21.515A25.972,25.972,0,0,1,26.042,23.2a1.285,1.285,0,1,0,.867,2.418,28.572,28.572,0,0,0,3.906-1.842,1.285,1.285,0,0,0-1.229-2.257Z" transform="translate(-7.782 -6.613)" fill="#fff" fill-rule="evenodd"></path><path d="M48.627,17.4a41.36,41.36,0,0,0-2.976-3.271,12.6,12.6,0,0,0-1.769-1.278,1.915,1.915,0,0,0-1.018-.238,1.26,1.26,0,0,0-1.189,1,6.762,6.762,0,0,0-.208,1.763A27.14,27.14,0,0,1,39.12,9.838a1.623,1.623,0,0,0-.085-.247,1.172,1.172,0,0,0-.52-.579,1.214,1.214,0,0,0-1.176-.065,1.274,1.274,0,0,0-.73,1.447c.017.083.165.673.208.9a1.281,1.281,0,0,0,.235.534A47.782,47.782,0,0,0,40.59,19.12a6.725,6.725,0,0,1,.644,1.59c.042.164.06.534.1.716a1.54,1.54,0,0,0,.27.619,1.208,1.208,0,0,0,1.407.464,1.248,1.248,0,0,0,.857-.786,8.494,8.494,0,0,0,.332-4.257c-.048-.436-.107-.871-.143-1.3a43.74,43.74,0,0,1,3.217,3.64A15.969,15.969,0,0,0,48.8,21.38a1.256,1.256,0,0,0,1.569-.093,2.629,2.629,0,0,0,.795-1.569,14.089,14.089,0,0,0,.021-2.652,51.459,51.459,0,0,0-.961-10.19,1.285,1.285,0,1,0-2.5.576,48.913,48.913,0,0,1,.9,9.677C48.615,17.2,48.621,17.3,48.627,17.4Z" transform="translate(-11.309 -1.819)" fill="#fff" fill-rule="evenodd"></path><path d="M61.219,4.2c.466,2.251.932,4.482,1.236,6.8A1.285,1.285,0,1,0,65,10.667C64.573,7.4,63.831,4.3,63.209,1.081a1.269,1.269,0,0,0-1.5-1.058,1.237,1.237,0,0,0-1.061,1.235c0,.062.04.5.047.674.015.391.008.773-.012,1.165A1.283,1.283,0,0,0,61.219,4.2Z" transform="translate(-18.767 0)" fill="#fff" fill-rule="evenodd"></path><path d="M65.131,24.565a1.284,1.284,0,0,0-2.021-1.4,1.519,1.519,0,0,0-.539,1.515,1.284,1.284,0,0,0,2.56-.111Z" transform="translate(-19.355 -7.084)" fill="#fff" fill-rule="evenodd"></path><path d="M28.234,56.935c-.131-.277-.236-.5-.261-.543-1.193-2.232-2.488-4.435-3.9-6.537a1.285,1.285,0,0,0-2.134,1.431c1.362,2.031,2.613,4.16,3.767,6.317A19.784,19.784,0,0,0,26.8,59.839a1.765,1.765,0,0,0,1.129.789,1.8,1.8,0,0,0,1.662-.826,21.208,21.208,0,0,0,1.8-3.946c.281-.782.52-1.6.741-2.4a35.443,35.443,0,0,0,.875-4.609,1.285,1.285,0,1,0-2.545-.353,32.871,32.871,0,0,1-.806,4.277c-.2.737-.423,1.5-.682,2.217C28.9,55.2,28.6,56.1,28.234,56.935Z" transform="translate(-6.708 -14.674)" fill="#fff" fill-rule="evenodd"></path></g></svg>