<svg xmlns="http://www.w3.org/2000/svg" width="231.281" height="19.863" viewBox="0 0 231.281 19.863"><path d="M18.148.936q-.156.182-.234.169a.947.947,0,0,0-.156-.013.319.319,0,0,0-.2.117.439.439,0,0,1-.325.117.815.815,0,0,1-.845-.468,2.861,2.861,0,0,1-.195-1.1,10.167,10.167,0,0,1,.052-1.105q.052-.468,1.469-6.162t1.417-5.954q-.13.182-.624,1.092t-1.04,1.846l-1.82,3.406a7.807,7.807,0,0,0-.637,1.092,22.76,22.76,0,0,1-1.781,2.626,7.848,7.848,0,0,1-1.56,1.7A3.656,3.656,0,0,1,9.646-.52,1.641,1.641,0,0,1,8.359-1.2,2.308,2.308,0,0,1,7.8-2.7a17.236,17.236,0,0,1,.26-2.47Q9.1-9.75,9.386-10.608A4.909,4.909,0,0,0,9.672-11.7a.474.474,0,0,0-.052-.286.564.564,0,0,0-.156.182,56.365,56.365,0,0,0-3.016,5.85Q2.73.884,2.184,1.508A1.12,1.12,0,0,1,1.378,1,1.809,1.809,0,0,1,.962-.182,3.067,3.067,0,0,1,1.313-1.56a12.06,12.06,0,0,1,.7-1.235q.351-.533.481-.741a1.525,1.525,0,0,0,.182-.6,10.731,10.731,0,0,0,.962-1.69Q4.42-7.046,5.564-9.1q2.418-4.42,3.146-5.434.052-.1.117-.273t.286-.6q.221-.429.429-.767.546-.858.91-.858a1.833,1.833,0,0,1,1.222.637,2.276,2.276,0,0,1,.65,1.7q0,.312-.286,2.262Q11.7-10.816,11-7.579t-.7,3.6q0,.364.182.364.1,0,.312-.234a3.861,3.861,0,0,0,.416-.585q.364-.559.832-1.222t.884-1.313q1.3-2.028,4.212-7.176.26-.39.806-1.248a11.671,11.671,0,0,1,1.378-2.041,1.215,1.215,0,0,1,.793-.208,1.774,1.774,0,0,1,1.118.611,1.809,1.809,0,0,1,.611,1.313,12.437,12.437,0,0,1-.377,2.379q-.377,1.664-.871,3.224-.1.546-.78,3.081a17.027,17.027,0,0,0-.676,3.315v.208A6.74,6.74,0,0,0,18.746-.7,2.974,2.974,0,0,1,18.148.936Zm9.334-9q-.962,0-3.172,3.718a7.016,7.016,0,0,0-.7,1.638q.416.052,1.612-.936.234-.208.637-.546t.585-.494q.182-.156.468-.416a7.4,7.4,0,0,0,.884-1.066l.572-.936Q27.924-8.06,27.482-8.06Zm-6.11,6.786a1.214,1.214,0,0,0-.338-.65q-.39-.39,1.612-4.056a3.4,3.4,0,0,0,.4-.546,2.088,2.088,0,0,1,.325-.442.3.3,0,0,1,.078-.195.234.234,0,0,1,.182-.091l.208-.416a6.314,6.314,0,0,1,1.014-1.118,9.562,9.562,0,0,1,1.456-1.222,1.927,1.927,0,0,1,1.118-.312,1.642,1.642,0,0,1,.988.364,1.73,1.73,0,0,0,.338.286q.494.39,2.21,1.924l-.442,1.3a3.518,3.518,0,0,0,.312,3.172,1.124,1.124,0,0,0,.884.65q.624.1.624.572,0,1.066-.7,1.222A2.76,2.76,0,0,1,28.6-2.5a2.585,2.585,0,0,1-.468-1.144,5.545,5.545,0,0,1-.6.676Q24,.624,22.178-.546a1.467,1.467,0,0,0-.442-.416Q21.372-1.222,21.372-1.274Zm13.7-1.664a.3.3,0,0,0,.182.377,1.219,1.219,0,0,0,.78-.117,5.738,5.738,0,0,0,1.3-.767,5.973,5.973,0,0,0,1.1-1A3.366,3.366,0,0,0,39-5.577a1.087,1.087,0,0,0-.39-1.209q-.728-.572-1.742.364A6.207,6.207,0,0,0,35.074-2.938ZM41.08.234A1.047,1.047,0,0,1,40.7.429q-.169.039-.468.091a.782.782,0,0,1-.611-.182,1.548,1.548,0,0,1-.468-.546,9.513,9.513,0,0,1-.286-2.548L37.8-1.794A4.674,4.674,0,0,1,34.762-.26a2.369,2.369,0,0,1-1.053-.7,3.559,3.559,0,0,1-.819-1.066,4,4,0,0,1,.234-2.483,7.69,7.69,0,0,1,1.482-2.795,3.8,3.8,0,0,1,2.132-1.625A2.693,2.693,0,0,1,39-8.71q.832.416.936-.156.026-.1.715-2.236a40.331,40.331,0,0,1,1.885-4.68q.52-1.092,1.066-1.04a1.562,1.562,0,0,1,.741.221,1.236,1.236,0,0,1,.572.65A1.088,1.088,0,0,1,44.8-15a27.578,27.578,0,0,0-1.664,3.822q-.988,2.652-1.4,4.16A16.814,16.814,0,0,0,41.223-3.3a9.6,9.6,0,0,0,.065,2.548,3.759,3.759,0,0,1,.039.637A.423.423,0,0,1,41.08.234Zm5.382-6.6a.488.488,0,0,1,.221-.052q.117,0,.325.312a.652.652,0,0,0,.572.312,1.469,1.469,0,0,0,1.209-.624,1.883,1.883,0,0,0,.481-1.066q0-.936-.52-.936a1.7,1.7,0,0,0-.988.416A3.959,3.959,0,0,0,46.8-6.916Zm1.924-4q2.912,0,2.912,2.418A4.275,4.275,0,0,1,50.141-5.3,3.165,3.165,0,0,1,47.8-3.9a2.8,2.8,0,0,1-1.989-.754,3.436,3.436,0,0,0-.442,1.43q0,.546.013.7a2.658,2.658,0,0,0,.091.442.6.6,0,0,0,.637.468A3.009,3.009,0,0,0,46.93-1.7a2.46,2.46,0,0,0,.455-.169,4.415,4.415,0,0,0,.442-.3,6.143,6.143,0,0,1,.52-.351q.221-.13.429-.26t.286-.182a1.245,1.245,0,0,1,.286-.13,1.255,1.255,0,0,1,.728.234.656.656,0,0,1,.338.533,1.727,1.727,0,0,1-.468.884,2.826,2.826,0,0,1-.962.819L48.7-.468a.629.629,0,0,1-.468.312h-.208q-.1.208-.689.416a3.3,3.3,0,0,1-1.1.208q-2.964,0-2.964-3.38a8.9,8.9,0,0,1,1.3-4.238Q46.358-10.374,48.386-10.374Zm12.9,5.122-.13.624a.353.353,0,0,0-.1.26,2.134,2.134,0,0,1-.078.468,5.078,5.078,0,0,0-.117.65q-.039.338.078.442t.351-.026q.052-.078.247-.4t.325-.507a1.065,1.065,0,0,1,.3-.481.459.459,0,0,0,.195-.325,5.477,5.477,0,0,1,.78-1.248q.832-1.482,1.1-1.846a3.213,3.213,0,0,0,.4-.676q.39-.78.728-.78a.966.966,0,0,1,.416.052.663.663,0,0,1,.156.338,2.924,2.924,0,0,1,.429.585,1.3,1.3,0,0,1,.221.559l-.13.39a3.164,3.164,0,0,1-.364,1.222,21.382,21.382,0,0,0-.468,2.535q-.13,1.131.078,1.313a.151.151,0,0,0,.195-.052,2.4,2.4,0,0,0,.234-.351q.143-.247.2-.351a4.867,4.867,0,0,0,.416-.624,12.809,12.809,0,0,0,.988-1.482,6.05,6.05,0,0,1,.325-.78,3.159,3.159,0,0,0,.3-.793.672.672,0,0,1,.1-.325,9.215,9.215,0,0,0,.728-1.326q.39-1.014,1.183-1.079t.923.429a.531.531,0,0,1,0,.234,13.439,13.439,0,0,1-1.027,3.094,24.415,24.415,0,0,1-1.755,3.3,1.431,1.431,0,0,0-.364.416.968.968,0,0,0-.156.338,1.018,1.018,0,0,1-.208.364,4.863,4.863,0,0,1-1.2,1.2,1.5,1.5,0,0,1-1.716.13,2.488,2.488,0,0,1-.91-.728,3.511,3.511,0,0,1-.208-1.534L63.7-3.068a5.066,5.066,0,0,0-.832,1.04A3.581,3.581,0,0,1,61.1-.182a2.406,2.406,0,0,1-1.287-.312q-1-.416-1.1-.689A5.718,5.718,0,0,1,58.695-2.8a5.219,5.219,0,0,1,.3-1.729l.052-.26a.15.15,0,0,0-.052-.1Q60.112-8.58,60.372-9.2l.13-.78a.731.731,0,0,1,.26-.494.912.912,0,0,1,1.43-.156,3.207,3.207,0,0,1,.442.52,1.8,1.8,0,0,1-.1,1.664A21.374,21.374,0,0,0,61.282-5.252ZM72.046-1.17l-.13-.52q-.624-.312-.442-.858.364-.624,1.313-2.873T73.84-8.008a.884.884,0,0,1,.364-.806q.494-.364,1.04.26a2.359,2.359,0,0,1,.546,1.612,8,8,0,0,1-.585,1.781q-.585,1.469-1.157,2.626a12.387,12.387,0,0,1-.767,1.417.562.562,0,0,1-.455.26Zm3.38-13.156a2.171,2.171,0,0,1,.962.26,5.442,5.442,0,0,0,.676,1.014,2.085,2.085,0,0,1,.546,1.118q0,1.118-1.248,1.118a1.862,1.862,0,0,1-1.183-.624,1.819,1.819,0,0,1-.663-1.326,3,3,0,0,1,.455-.819A5.557,5.557,0,0,0,75.426-14.326ZM84.214-11.7q0,.26.39.26a10.589,10.589,0,0,0,1.118-.1,2.283,2.283,0,0,1,.338-.052.734.734,0,0,1,.468.052,1.163,1.163,0,0,1,.117.884q-.091.624-.351.728-.026,0-.546.156-.416.1-2.366.286-.676,1.3-.793,1.547a1.2,1.2,0,0,0-.117.3L81.38-5.356q-.1,0-.1.156.1.312-.026.416a2.091,2.091,0,0,0-.364.416q.13.13-.13.6a3.925,3.925,0,0,1-.364,1.326,5.673,5.673,0,0,0,.052.6q.026.13.13.1a3.629,3.629,0,0,0,.7-.026q.39-.182-.364,1.82a7.511,7.511,0,0,1-.819,1.053q-.429.455-.559.455-2.184-.026-1.82-2.444a3.537,3.537,0,0,0,.13-.572,1.948,1.948,0,0,1,.286-.832.157.157,0,0,0,0-.234A5.968,5.968,0,0,1,78.6-4.056q-.156-.208.13-.455t.195-.377q-.091-.13.091-.494t.429-.832a5.432,5.432,0,0,0,.3-.624A4.989,4.989,0,0,1,80.171-7.9q.455-.988.585-1.222.208-.1-.169-.169a10.841,10.841,0,0,0-1.5-.065,3.381,3.381,0,0,1-1.612-.286A.729.729,0,0,1,77.4-10.5a.885.885,0,0,1,.832-.546l3.328-.286.078-.442q.1-.156.195-.3l.117-.182A.509.509,0,0,0,82-12.376a2.005,2.005,0,0,0,.1-.494,3.29,3.29,0,0,0,.52-1.326,8.463,8.463,0,0,0,.624-1.092q.78-1.612,1.9-.884.78.52.7.988a1.347,1.347,0,0,1-.182.533,5.425,5.425,0,0,0-.364.9,3.1,3.1,0,0,0-.676,1.4A2.4,2.4,0,0,1,84.214-11.7Zm8.632,8.658.156-2q0-.572-.286-.572a4.053,4.053,0,0,0-1.807.949A16.9,16.9,0,0,0,88.3-2.21Q87.464-.988,86.71-.988a1.47,1.47,0,0,1-.858-.52,1.521,1.521,0,0,1-.39-1.04,16.785,16.785,0,0,1,.78-3.172,5.14,5.14,0,0,1,.4-1.378,11.392,11.392,0,0,0,.52-1.456q.195-.7.949-2.8T89.18-14.3q.312-.858.442-1.248.234-.546.39-1.04,0-.208.3-.4a1.106,1.106,0,0,1,.611-.195q.312,0,.7.546a1.741,1.741,0,0,1,.234,1.872q-.442.936-1.456,3.9a31.192,31.192,0,0,1-1.378,3.614l-.286.572L88.322-5.1q0,.078.026.078A19.813,19.813,0,0,1,90.454-6.89a9.857,9.857,0,0,0,1-.793,5.467,5.467,0,0,1,.7-.572A2.565,2.565,0,0,1,93.73-8.71a1.535,1.535,0,0,1,1.04.65,2.213,2.213,0,0,1,.572,1.508v.39a18.955,18.955,0,0,1-.52,2.912,2.19,2.19,0,0,0,.39-.052,1.235,1.235,0,0,1,.793.221,1.8,1.8,0,0,0,.3.221.212.212,0,0,1,.052.156,1.258,1.258,0,0,1-.65,1.04,2.652,2.652,0,0,1-1.248.494,1.431,1.431,0,0,1-1.17-.546A2.04,2.04,0,0,1,92.846-3.042ZM104.1-1.664a7.682,7.682,0,0,1,.312-1.976,5.018,5.018,0,0,1,.494-1.846q1.066-3.614,1.144-3.978.234-.676.65-1.781t.559-1.521q.143-.416.442-1.482a6.518,6.518,0,0,1,.507-1.4q.39-.6.52-.858.026-.156.52-.234t.65.078q.13-.052.455.429a1.406,1.406,0,0,1,.312.754.834.834,0,0,1-.13.442q-.117.169-.533.949a13.289,13.289,0,0,1-.572,1.768,7.789,7.789,0,0,0-.3.728q-.065.208-.377,1.014t-.715,2.132a9.75,9.75,0,0,1-.6,1.651,6.271,6.271,0,0,0-.429,1.651,7.9,7.9,0,0,0-.39,1.378,10.409,10.409,0,0,0-.208,1.027,4.25,4.25,0,0,1-.286,1.079,1.618,1.618,0,0,1-.39.871.547.547,0,0,1-.754.169Q104.1-1.118,104.1-1.664ZM114.426-5.07a4.035,4.035,0,0,0,.156-.4,2.715,2.715,0,0,1,.195-.455,2.112,2.112,0,0,0,.1-.793q.013-.637-.195-.767a.7.7,0,0,0-.468-.078,2.533,2.533,0,0,0-.6.338,6.446,6.446,0,0,0-2.366,3.562,1.432,1.432,0,0,0,.143.975q.221.325.741.169a2.272,2.272,0,0,0,.936-.559q.416-.4.546-.533t.221-.234a1.285,1.285,0,0,0,.182-.3q.091-.195.143-.286a2.761,2.761,0,0,0,.143-.325Q114.4-4.992,114.426-5.07Zm-2.938-3.406a5.742,5.742,0,0,1,2.34-1.352q1.56-.364,2.184.286a2.071,2.071,0,0,1,1.17,1.846,6.8,6.8,0,0,1-1.43,4.524A8.356,8.356,0,0,1,113.1-.754a4.975,4.975,0,0,1-2.392.572,1.658,1.658,0,0,1-1.014-.494,2.7,2.7,0,0,1-1.014-2.158l.052-.6q-.13-.13-.065-.208t.091-.1q.156,0,.1-.247a2.259,2.259,0,0,1,.182-.949,6.356,6.356,0,0,1,.6-1.3A8.575,8.575,0,0,1,111.488-8.476Zm7.8-.494a2.47,2.47,0,0,1,.936-.624.7.7,0,0,1,.832.1.959.959,0,0,1,.455.78,1.847,1.847,0,0,1-.143,1.092q0,.052-.156.754a1.477,1.477,0,0,0-.221.559,3.145,3.145,0,0,0,.013.481,1.122,1.122,0,0,1-.078.832,2.115,2.115,0,0,0,.052,1.456q.052.624.728.052a8.693,8.693,0,0,0,1.222-1.508q.6-.91.52-1.079a.288.288,0,0,1-.026-.26.9.9,0,0,1,.26-.234,1.423,1.423,0,0,0,.26-.208,1.149,1.149,0,0,0,.13-.3,2.837,2.837,0,0,1,.13-.338.915.915,0,0,0,.208-.364q-.052-.13.143-.351a2.188,2.188,0,0,0,.221-.273.9.9,0,0,1,.6-.728.988.988,0,0,1,.91.078.8.8,0,0,1,.377.793,5.681,5.681,0,0,1-.481,1.586,8.547,8.547,0,0,1-.754,1.5q-.312.442-.468.7A7.162,7.162,0,0,1,123.6-2.6q-.156.156-.286.3a2.275,2.275,0,0,1-.26.247q-1.4,1.586-2,1.612a1.415,1.415,0,0,1-.793-.234,3.454,3.454,0,0,1-.871-.6,4.036,4.036,0,0,1-.468-1.6,14.841,14.841,0,0,1-.156-2.509A20.062,20.062,0,0,1,119.288-8.97Zm10.53,2.6a.487.487,0,0,1,.221-.052q.117,0,.325.312a.652.652,0,0,0,.572.312,1.469,1.469,0,0,0,1.209-.624,1.883,1.883,0,0,0,.481-1.066q0-.936-.52-.936a1.7,1.7,0,0,0-.988.416,3.959,3.959,0,0,0-.962,1.092Zm1.924-4q2.912,0,2.912,2.418A4.275,4.275,0,0,1,133.5-5.3a3.165,3.165,0,0,1-2.34,1.4,2.8,2.8,0,0,1-1.989-.754,3.436,3.436,0,0,0-.442,1.43q0,.546.013.7a2.658,2.658,0,0,0,.091.442.6.6,0,0,0,.637.468,3.009,3.009,0,0,0,.819-.091,2.459,2.459,0,0,0,.455-.169,4.414,4.414,0,0,0,.442-.3,6.141,6.141,0,0,1,.52-.351q.221-.13.429-.26t.286-.182a1.245,1.245,0,0,1,.286-.13,1.255,1.255,0,0,1,.728.234.656.656,0,0,1,.338.533,1.727,1.727,0,0,1-.468.884,2.826,2.826,0,0,1-.962.819l-.286.156a.629.629,0,0,1-.468.312h-.208q-.1.208-.689.416a3.3,3.3,0,0,1-1.1.208q-2.964,0-2.964-3.38a8.9,8.9,0,0,1,1.3-4.238Q129.714-10.374,131.742-10.374Zm10.218,9.2-.13-.52q-.624-.312-.442-.858.364-.624,1.313-2.873t1.053-2.587a.884.884,0,0,1,.364-.806q.494-.364,1.04.26a2.359,2.359,0,0,1,.546,1.612,8,8,0,0,1-.585,1.781q-.585,1.469-1.157,2.626a12.385,12.385,0,0,1-.767,1.417.562.562,0,0,1-.455.26Zm3.38-13.156a2.171,2.171,0,0,1,.962.26,5.442,5.442,0,0,0,.676,1.014,2.085,2.085,0,0,1,.546,1.118q0,1.118-1.248,1.118a1.862,1.862,0,0,1-1.183-.624,1.819,1.819,0,0,1-.663-1.326,3,3,0,0,1,.455-.819A5.557,5.557,0,0,0,145.34-14.326ZM154.284-2.47l.13-1.768v-.416q-.078-.52-.338-.52a4.148,4.148,0,0,0-1.742.91,16.355,16.355,0,0,0-3.432,3.12.962.962,0,0,1-.377.3,1.234,1.234,0,0,1-.416.013,1.465,1.465,0,0,1-.741-.52,2.984,2.984,0,0,1-.624-.884,7.646,7.646,0,0,1,1.04-3.068q.13-.416.715-1.807a8.3,8.3,0,0,0,.663-2.145l-.026-.026a.23.23,0,0,1,.26-.26q.052-.078.52-.078a1.63,1.63,0,0,1,.962.364,1.188,1.188,0,0,1,.494,1.014,5.191,5.191,0,0,1-.676,2q-.676,1.352-.676,1.4.416-.286,1.586-1.2,2.678-2.158,3.3-2.158a2.045,2.045,0,0,1,.949.377,1.589,1.589,0,0,1,.715.689l-.1,1.2.052,1.43a4.5,4.5,0,0,1-.1,1.17l.078.156q-.1.1.208.78a3.12,3.12,0,0,1,.312.845q0,.169-.377.52a1.41,1.41,0,0,1-.715.4Q154.284-.676,154.284-2.47ZM168.246-6.6v.078q-.052,0-.091.182a.8.8,0,0,1-.091.26q-.182.156-.182.754a8.592,8.592,0,0,0-.468,1.768,6.528,6.528,0,0,0-.13,1.586,1.421,1.421,0,0,0,.767,1.209,2.583,2.583,0,0,0,.975.325,6.3,6.3,0,0,0,2.392-.364,5.225,5.225,0,0,1,.676-.13,8.669,8.669,0,0,0,1.235-.312q.845-.26.975-.156a.825.825,0,0,1,.364.91A4.543,4.543,0,0,1,173.6.481a5.156,5.156,0,0,1-1.612.923,6.1,6.1,0,0,1-2.236.377,5.727,5.727,0,0,1-2.054-.195q-1.82-.442-2.7-3.042a10.794,10.794,0,0,1,0-1.521,3.214,3.214,0,0,1,.143-1.105.335.335,0,0,0,.078-.286,2.632,2.632,0,0,1,.182-.793,1.8,1.8,0,0,0,.117-.923,1.44,1.44,0,0,1,.26-.416.5.5,0,0,0,.13-.455.821.821,0,0,1,.208-.611l.234-.39a9.317,9.317,0,0,1,.4-1.157,9.966,9.966,0,0,1,.507-1.183v-.052a3.329,3.329,0,0,1,.286-.546,11.086,11.086,0,0,1,1.638-3.419,18.862,18.862,0,0,1,2.106-2.977q1.066-1.222,1.742-.546a1.741,1.741,0,0,1,.39.884q.1.572-.182.624a27.268,27.268,0,0,0-2.6,4.29l-1.014,2.106q-.624,1.326-1.17,2.86A.647.647,0,0,0,168.246-6.6ZM181.818-5.07a4.037,4.037,0,0,0,.156-.4,2.715,2.715,0,0,1,.195-.455,2.112,2.112,0,0,0,.1-.793q.013-.637-.195-.767a.7.7,0,0,0-.468-.078,2.532,2.532,0,0,0-.6.338,6.446,6.446,0,0,0-2.366,3.562,1.432,1.432,0,0,0,.143.975q.221.325.741.169a2.272,2.272,0,0,0,.936-.559q.416-.4.546-.533t.221-.234a1.285,1.285,0,0,0,.182-.3q.091-.195.143-.286a2.757,2.757,0,0,0,.143-.325Q181.792-4.992,181.818-5.07ZM178.88-8.476a5.742,5.742,0,0,1,2.34-1.352q1.56-.364,2.184.286a2.071,2.071,0,0,1,1.17,1.846,6.8,6.8,0,0,1-1.43,4.524,8.356,8.356,0,0,1-2.652,2.418,4.975,4.975,0,0,1-2.392.572,1.658,1.658,0,0,1-1.014-.494,2.7,2.7,0,0,1-1.014-2.158l.052-.6q-.13-.13-.065-.208t.091-.1q.156,0,.1-.247a2.259,2.259,0,0,1,.182-.949,6.356,6.356,0,0,1,.6-1.3A8.575,8.575,0,0,1,178.88-8.476Zm14.066.208.65-.208a1.534,1.534,0,0,1,.819.273q.429.273.429.559,0,.078.156.208a1.613,1.613,0,0,1,.468,1.144,11.944,11.944,0,0,1-.4,2.327,15.587,15.587,0,0,0-.416,2.067,1.813,1.813,0,0,0,.1.7,1.494,1.494,0,0,1,.117.455.686.686,0,0,1-.234.39A.98.98,0,0,1,193.9-.1a1.3,1.3,0,0,1-.975-.559,2.113,2.113,0,0,1-.468-1.4,13.716,13.716,0,0,1,.572-2.977q.026-.156.052-.273t.039-.182q.013-.065.026-.117a.617.617,0,0,0,.013-.143q0-.091-.1-.091a.764.764,0,0,0-.325.13,3.53,3.53,0,0,0-.416.286q-.195.156-.546.455t-.611.481q-.26.182-1.092.884a14.584,14.584,0,0,1-2.327,1.846,2.076,2.076,0,0,1-.78-.364q-.585-.364-.585-.793a7.8,7.8,0,0,1,.468-1.833,23.523,23.523,0,0,1,1.118-2.756,4.5,4.5,0,0,0,.182-.962q.208-1.248.754-1.248a1.321,1.321,0,0,1,1,.52,1.6,1.6,0,0,1,.455,1.053A3.906,3.906,0,0,1,190.1-6.9a4.069,4.069,0,0,1-.351.845.74.74,0,0,0,.156-.13,5.1,5.1,0,0,1,.832-.624q.806-.6,1.352-.936Zm8.71,5.07q.286,0,.286.611t.312.793q.078.1-.273.325t-1.521.9a3.768,3.768,0,0,1-1.144.182,1.662,1.662,0,0,1-.832-.338,2.2,2.2,0,0,1-.936-1.638,5.666,5.666,0,0,1,.312-2.652,11.5,11.5,0,0,1,2.392-3.562,3.9,3.9,0,0,1,.7-.442q1.95-1.066,3.042-.312a.818.818,0,0,0,.637-.026,1.92,1.92,0,0,0,.4-.728q.78-2.132,1.5-3.874t.819-2.015q.1-.273.156-.416a.557.557,0,0,1,.1-.2l.728-.234q.26-.078.65.247a1.458,1.458,0,0,1,.494.663,11.486,11.486,0,0,1-1.079,3.406q-1.079,2.548-1.313,3.237t-.429,1.17q-.195.481-.312.767a4.394,4.394,0,0,0-.208.689,15.47,15.47,0,0,1-.637,1.755,14.46,14.46,0,0,0-.754,2.717,6.191,6.191,0,0,0,.078,1.859q0,.312-.468.624A1.491,1.491,0,0,1,202.93.1a2.179,2.179,0,0,1-.442-1.56q.1-.78.546-2.691a17.983,17.983,0,0,1,.65-2.379,1.366,1.366,0,0,0,.065-.78q-.091-.156-.611-.182-1.118-.026-2.73,2.47-1.118,1.742-.78,2.418.156.338,1.04-.156Q200.824-2.834,201.656-3.2ZM213.2-6.448l-.442.13a.562.562,0,0,1-.286-.13l-.416-.52-.442.442a4.7,4.7,0,0,0-1,1.612,6.132,6.132,0,0,0-.455,1.612q-.052.6.091.741a.541.541,0,0,0,.364.156,2.188,2.188,0,0,0,.845-.3,1.63,1.63,0,0,1,.468-.377.469.469,0,0,0,.156-.065.647.647,0,0,0,.078-.117,1.787,1.787,0,0,0,.1-.221A4.829,4.829,0,0,1,212.94-4.5a3.554,3.554,0,0,0,.663-.923,1.01,1.01,0,0,0,.091-.585q-.052-.234-.117-.273a.946.946,0,0,0-.182-.078A.819.819,0,0,1,213.2-6.448Zm2.366-2.158a.974.974,0,0,1,.637,0q.429.1.429.26a.931.931,0,0,0,.091.364q.091.208.169.208.26.026.052.416a1.872,1.872,0,0,1-.572.65,2.614,2.614,0,0,0-.676.507.537.537,0,0,0,.026.273,2.444,2.444,0,0,1-.455,2.132A8.733,8.733,0,0,1,213.109-1.4a5.187,5.187,0,0,1-2.509,1.2Q210,0,209.222-.7a2.6,2.6,0,0,1-1.04-.962,1.745,1.745,0,0,1-.39-1.066,10.572,10.572,0,0,1,1.391-4.147,6.355,6.355,0,0,1,2.769-2.873,2.032,2.032,0,0,1,1.118-.156.964.964,0,0,1,.806.494q.39.754-.182.962-.286,0-.286.234a2.944,2.944,0,0,0,1.066-.052A2.244,2.244,0,0,0,215.566-8.606ZM224.8-2.47l.13-1.768v-.416q-.078-.52-.338-.52a4.148,4.148,0,0,0-1.742.91,16.355,16.355,0,0,0-3.432,3.12.962.962,0,0,1-.377.3,1.234,1.234,0,0,1-.416.013,1.465,1.465,0,0,1-.741-.52,2.984,2.984,0,0,1-.624-.884A7.646,7.646,0,0,1,218.3-5.3q.13-.416.715-1.807a8.3,8.3,0,0,0,.663-2.145l-.026-.026a.23.23,0,0,1,.26-.26q.052-.078.52-.078a1.63,1.63,0,0,1,.962.364,1.188,1.188,0,0,1,.494,1.014,5.191,5.191,0,0,1-.676,2q-.676,1.352-.676,1.4.416-.286,1.586-1.2,2.678-2.158,3.3-2.158a2.045,2.045,0,0,1,.949.377,1.589,1.589,0,0,1,.715.689l-.1,1.2.052,1.43a4.505,4.505,0,0,1-.1,1.17l.078.156q-.1.1.208.78a3.12,3.12,0,0,1,.312.845q0,.169-.377.52a1.41,1.41,0,0,1-.715.4Q224.8-.676,224.8-2.47Zm5.148-1.144a1.8,1.8,0,0,1,.754-.325,1.909,1.909,0,0,1,.754.2q.884.546.78,1.209t-1.144,1.183a1.741,1.741,0,0,1-1.716-.156Q228.332-2.5,229.944-3.614Z" transform="translate(-0.962 18.077)" fill="#fff"></path></svg>