<svg xmlns="http://www.w3.org/2000/svg" width="120.15" height="236.87" viewBox="0 0 120.15 236.87"><g transform="translate(-1118.663 -6800.655)"><g transform="translate(1255.518 6929.479) rotate(130)"><path d="M3,35.982q69.07,27.3,93.626,26.194c24.556-1.109,18.172-21.842,14.049-27.2s-15.617,1.346-9.029,6.082,20.443.2,28.452-3.922q8.009-4.124,18.99-13.137" transform="matrix(-0.94, 0.342, -0.342, -0.94, 164.126, 59.871)" fill="none" stroke="#002e8c" stroke-linecap="square" stroke-width="3" fill-rule="evenodd"></path><path d="M23.253,89.906c.613-.02,1.1-.777,1.085-1.688l-.224-14.862c-.014-.912-.522-1.635-1.135-1.614s-1.1.777-1.087,1.688l.2,13.211-8.886.3c-.613.02-1.1.777-1.085,1.688s.522,1.635,1.135,1.614Z" transform="matrix(0.276, 0.961, -0.961, 0.276, 92.938, 43.403)" fill="#002e8c" fill-rule="evenodd"></path></g><path d="M-41.151-4.29a3.416,3.416,0,0,0,.132-.341,2.3,2.3,0,0,1,.165-.385,1.787,1.787,0,0,0,.088-.671q.011-.539-.165-.649a.593.593,0,0,0-.4-.066,2.143,2.143,0,0,0-.506.286,5.455,5.455,0,0,0-2,3.014,1.212,1.212,0,0,0,.121.825q.187.275.627.143a1.922,1.922,0,0,0,.792-.473q.352-.341.462-.451t.187-.2a1.087,1.087,0,0,0,.154-.253q.077-.165.121-.242a2.335,2.335,0,0,0,.121-.275Q-41.173-4.224-41.151-4.29Zm-2.486-2.882a4.858,4.858,0,0,1,1.98-1.144q1.32-.308,1.848.242a1.752,1.752,0,0,1,.99,1.562,5.757,5.757,0,0,1-1.21,3.828A7.07,7.07,0,0,1-42.273-.638,4.21,4.21,0,0,1-44.3-.154a1.4,1.4,0,0,1-.858-.418A2.285,2.285,0,0,1-46.013-2.4l.044-.506q-.11-.11-.055-.176t.077-.088q.132,0,.088-.209a1.912,1.912,0,0,1,.154-.8,5.378,5.378,0,0,1,.506-1.1A7.256,7.256,0,0,1-43.637-7.172ZM-31.911-2.09l.11-1.5v-.352q-.066-.44-.286-.44a3.51,3.51,0,0,0-1.474.77,13.839,13.839,0,0,0-2.9,2.64.814.814,0,0,1-.319.253,1.044,1.044,0,0,1-.352.011,1.239,1.239,0,0,1-.627-.44,2.525,2.525,0,0,1-.528-.748,6.47,6.47,0,0,1,.88-2.6q.11-.352.6-1.529a7.026,7.026,0,0,0,.561-1.815l-.022-.022a.194.194,0,0,1,.22-.22q.044-.066.44-.066a1.379,1.379,0,0,1,.814.308,1,1,0,0,1,.418.858,4.393,4.393,0,0,1-.572,1.694q-.572,1.144-.572,1.188.352-.242,1.342-1.012,2.266-1.826,2.794-1.826a1.731,1.731,0,0,1,.8.319,1.344,1.344,0,0,1,.605.583l-.088,1.012.044,1.21a3.812,3.812,0,0,1-.088.99l.066.132q-.088.088.176.66a2.64,2.64,0,0,1,.264.715q0,.143-.319.44a1.193,1.193,0,0,1-.605.341Q-31.911-.572-31.911-2.09Zm15.466-6.82a2.123,2.123,0,0,1,.55.77,2.174,2.174,0,0,1,.264.814,2.793,2.793,0,0,1-.528,1.1q-.286.572-.3.627a.49.49,0,0,1-.044.121.429.429,0,0,1-.044.077.666.666,0,0,0-.044.055q-.033.044-.055.044a.107.107,0,0,0-.055.022.055.055,0,0,1-.066,0,.682.682,0,0,0-.253-.011q-.22.011-.528-.319a.978.978,0,0,1-.308-.66,1.164,1.164,0,0,1,.2-.638,1.393,1.393,0,0,0,.2-.363q0-.055-.2-.055a2.958,2.958,0,0,0-1.463.638,1.768,1.768,0,0,0-.935,1.419,2.637,2.637,0,0,0,.4,1.419A3.909,3.909,0,0,1-19.14-2.8,4.234,4.234,0,0,1-18.8-1.3a1.2,1.2,0,0,1-.583,1.034,2.827,2.827,0,0,1-1.606.4,2.712,2.712,0,0,1-1.8-.66,1.833,1.833,0,0,1-.781-1.364q0-.374.308-.374a4.563,4.563,0,0,1,.616.341,1.818,1.818,0,0,0,.88.319q.88,0,.968-.484a2.364,2.364,0,0,0-.308-.924,5.856,5.856,0,0,1-.858-3.036q0-.77,1.518-1.87a5.772,5.772,0,0,1,2.53-1.21A2.877,2.877,0,0,1-16.445-8.91Zm2.618,6.182q0,.77.792.308a3.051,3.051,0,0,0,.792-.66q.374-.506.968-1.386a4.193,4.193,0,0,0,.792-1.474q-.242-.748-.55-.814-.616,0-1.672,1.452a4.519,4.519,0,0,0-.847,1.54A5.605,5.605,0,0,0-13.827-2.728Zm6.314.814a2.165,2.165,0,0,1-.781.836,1.815,1.815,0,0,1-.957.352.961.961,0,0,1-.748-.4,3.8,3.8,0,0,1-.682-1.54l-.792.726q-.154.176-.374.4a3.992,3.992,0,0,0-.528.528,2.74,2.74,0,0,1-1.254.7,1.666,1.666,0,0,1-.726.022q-.44-.066-.44-.165a.266.266,0,0,0-.011-.11.222.222,0,0,0-.1-.011,2.916,2.916,0,0,0-.682-.462,1.394,1.394,0,0,1-.264-.7,6,6,0,0,1,.264-1.452,5.215,5.215,0,0,1,1.265-2.915,8.766,8.766,0,0,1,2.365-2.3,1.191,1.191,0,0,1,.825-.33,1.552,1.552,0,0,1,.858.176,2.892,2.892,0,0,1,.77.77,6.257,6.257,0,0,1,.649,1.034q0,.022.11.429a1.1,1.1,0,0,1,.077.451,4.067,4.067,0,0,0-.033.792,5.856,5.856,0,0,0-.264,1.628.814.814,0,0,0,.1.594q.143.176.506,0a.63.63,0,0,1,.726.132A.616.616,0,0,1-7.513-1.914Zm.4-.418A24.05,24.05,0,0,1-6.3-5.61q.132-.418.242-.77A10.19,10.19,0,0,1-4.829-9.262q.022-.044.066-.165t.066-.165a1.2,1.2,0,0,1,.154-.616,3.5,3.5,0,0,0,.4-.77l.616-1.254a1.285,1.285,0,0,1,.7-.836l-.022-.022a.887.887,0,0,1,.407-.308,1.309,1.309,0,0,1,.517-.132.574.574,0,0,1,.638.66,1.312,1.312,0,0,1-.176.792h.022a3.582,3.582,0,0,1-.385.88A20.16,20.16,0,0,0-2.8-9.416a16.4,16.4,0,0,0-1.188,2.64q-.044.088-.165.374t-.143.33l-.352,1.364-.088.462q-.352.968-.4,1.188a2.59,2.59,0,0,0-.121.4,4.294,4.294,0,0,1-.165.528A8.061,8.061,0,0,0-5.8-.308l-.022.088a1.384,1.384,0,0,1-.275.726A.492.492,0,0,1-6.633.66,1.023,1.023,0,0,1-7.3-.385,8.532,8.532,0,0,1-7.117-2.332Zm8.712-4.51q-.286-.286-.836.11a1.944,1.944,0,0,0-.605.4,4.966,4.966,0,0,0-.649.66q-.264.33-.154.4-.022.044.055.066a1.1,1.1,0,0,0,.2.033l.231.022a1.559,1.559,0,0,0,.407-.055,1.884,1.884,0,0,0,.594-.253A2.844,2.844,0,0,0,1.529-6.2Q1.7-6.732,1.595-6.842Zm-.44,3.08a4.46,4.46,0,0,1-1.067.11,1.986,1.986,0,0,1-.825-.11q-.242-.132-.352.33l-.066.484a1.1,1.1,0,0,0,.286.968.59.59,0,0,0,.55.187,1.238,1.238,0,0,0,.66-.253,5.271,5.271,0,0,0,.616-.572,3.987,3.987,0,0,1,.484-.462q.22-.4,1.1-.154.484.352-.132,1.452a3.63,3.63,0,0,1-.671.748,5.853,5.853,0,0,1-.891.726A2.938,2.938,0,0,1-1.617-.2q-1.65-.66-1.364-3.256a2.825,2.825,0,0,0-.033-.891.77.77,0,0,0-.22-.374l-.3-.253q-.352-.33-.363-.462A.89.89,0,0,1-3.817-5.8a.646.646,0,0,1,.154-.275,2.252,2.252,0,0,1,.583-.209.9.9,0,0,1,.264.121q.187.11.187.2.11.22.484-.462l.2-.4a4.522,4.522,0,0,1,.836-.913,4.944,4.944,0,0,1,.847-.616,3.639,3.639,0,0,1,.913-.286,3.369,3.369,0,0,1,.836-.1A2.522,2.522,0,0,1,3-7.832a1.338,1.338,0,0,1,.462,1.023,2.054,2.054,0,0,1-.176,1.177,2.763,2.763,0,0,1-.869,1A5.193,5.193,0,0,1,1.155-3.762ZM10.571-.308l-.176,2.156a1.545,1.545,0,0,1-.22.814q-.132.088-.605-.209a3.277,3.277,0,0,1-.715-.572A1.079,1.079,0,0,1,8.58,1.43,3.208,3.208,0,0,1,8.613.682a3.046,3.046,0,0,0,.11-.924,8.968,8.968,0,0,1,.319-2.013q.319-1.287.407-1.9a8.4,8.4,0,0,0,.418-1.8.628.628,0,0,1,.308-.594,2.778,2.778,0,0,1,.33-.726,27.708,27.708,0,0,1,1.32-3.278,5.432,5.432,0,0,1,.638-1.386,4.414,4.414,0,0,1,.836-1.1,14.141,14.141,0,0,1,1.21-1.166,4.166,4.166,0,0,1,1.793-.572,2.361,2.361,0,0,1,1.529.792,2.114,2.114,0,0,1,.352.44,1.307,1.307,0,0,1,.044.418,5.634,5.634,0,0,1-.77,1.474q-.682,1.056-.858,1.078a1.44,1.44,0,0,1-.352.088.413.413,0,0,1-.462-.473,2.38,2.38,0,0,1,.264-1.023,1.086,1.086,0,0,0,.264-.616q0-.374-.594-.374a3.784,3.784,0,0,0-.693.627q-.517.539-.517.671a2.521,2.521,0,0,1-.418.66,1.771,1.771,0,0,0-.4.759q0,.209-.132.209a3.431,3.431,0,0,1-.308.7,2.171,2.171,0,0,1-.44.77h.022a5.059,5.059,0,0,0-.4,1.089q.022.1.528.044a6.682,6.682,0,0,0,1-.187,1.846,1.846,0,0,1,.935-.022,1.176,1.176,0,0,1,.4.682q.154.528.066.66-.088.242-1.408.484-.264.066-.858.2-1.3.242-1.3.352-.22,0-.22.286a1.3,1.3,0,0,1-.1.517,11.72,11.72,0,0,0-.352,1.4,10.3,10.3,0,0,0-.253,1.43,1.312,1.312,0,0,0-.176.792A1.13,1.13,0,0,0,10.571-.308ZM20.163-4.29a3.416,3.416,0,0,0,.132-.341,2.3,2.3,0,0,1,.165-.385,1.787,1.787,0,0,0,.088-.671q.011-.539-.165-.649a.593.593,0,0,0-.4-.066,2.143,2.143,0,0,0-.506.286,5.455,5.455,0,0,0-2,3.014,1.212,1.212,0,0,0,.121.825q.187.275.627.143a1.922,1.922,0,0,0,.792-.473q.352-.341.462-.451t.187-.2a1.087,1.087,0,0,0,.154-.253q.077-.165.121-.242a2.335,2.335,0,0,0,.121-.275Q20.141-4.224,20.163-4.29ZM17.677-7.172a4.858,4.858,0,0,1,1.98-1.144q1.32-.308,1.848.242a1.752,1.752,0,0,1,.99,1.562,5.757,5.757,0,0,1-1.21,3.828A7.07,7.07,0,0,1,19.041-.638a4.21,4.21,0,0,1-2.024.484,1.4,1.4,0,0,1-.858-.418A2.285,2.285,0,0,1,15.3-2.4l.044-.506q-.11-.11-.055-.176t.077-.088q.132,0,.088-.209a1.912,1.912,0,0,1,.154-.8,5.378,5.378,0,0,1,.506-1.1A7.256,7.256,0,0,1,17.677-7.172ZM29.557-8.4a1.177,1.177,0,0,1,.572.22,1.316,1.316,0,0,1,.462.418q.572.99.176,1.5a1.628,1.628,0,0,1-1.606.726q-.11-.022-.264-.308a1.487,1.487,0,0,1-.176-.44q0-.11-.506.429t-.594.627a11.209,11.209,0,0,0-1.2,2.013q-.693,1.4-.869,1.837a6.377,6.377,0,0,1-.3.66.564.564,0,0,1-.231.264,1.033,1.033,0,0,1-.495-.055A.981.981,0,0,1,24.079-.7q-.836-.726-.044-1.892.154-.308.594-1.6t.506-1.441a.971.971,0,0,0-.044-.539.425.425,0,0,0-.374-.187q-.462,0-.462-.7a1.175,1.175,0,0,1,.506-.924,2.016,2.016,0,0,1,.9-.187,1.358,1.358,0,0,1,.836.187,2.72,2.72,0,0,1,.462,1.43q.154-.132.528-.539t.528-.561A3.316,3.316,0,0,1,29.557-8.4Zm8.272,5.676q0,.77.792.308a3.051,3.051,0,0,0,.792-.66q.374-.506.968-1.386a4.193,4.193,0,0,0,.792-1.474q-.242-.748-.55-.814-.616,0-1.672,1.452a4.519,4.519,0,0,0-.847,1.54A5.605,5.605,0,0,0,37.829-2.728Zm6.314.814a2.165,2.165,0,0,1-.781.836,1.815,1.815,0,0,1-.957.352.961.961,0,0,1-.748-.4,3.8,3.8,0,0,1-.682-1.54l-.792.726q-.154.176-.374.4a3.992,3.992,0,0,0-.528.528,2.74,2.74,0,0,1-1.254.7,1.666,1.666,0,0,1-.726.022q-.44-.066-.44-.165a.266.266,0,0,0-.011-.11.222.222,0,0,0-.1-.011,2.916,2.916,0,0,0-.682-.462,1.394,1.394,0,0,1-.264-.7,6,6,0,0,1,.264-1.452,5.215,5.215,0,0,1,1.265-2.915A8.766,8.766,0,0,1,39.7-8.4a1.191,1.191,0,0,1,.825-.33,1.552,1.552,0,0,1,.858.176,2.892,2.892,0,0,1,.77.77A6.257,6.257,0,0,1,42.8-6.754q0,.022.11.429a1.1,1.1,0,0,1,.077.451,4.067,4.067,0,0,0-.033.792,5.856,5.856,0,0,0-.264,1.628.814.814,0,0,0,.1.594q.143.176.506,0a.63.63,0,0,1,.726.132A.616.616,0,0,1,44.143-1.914Zm-102.41,20.1a.9.9,0,0,1,.385-.1,1.578,1.578,0,0,1,.407-.011q.484.176.88,2.684.044.4.088.748.11.594.132.66a2.98,2.98,0,0,1,.066.319q.044.253.11.253.242,0,1.584-1.936a11.175,11.175,0,0,1,1.276-1.584,2.268,2.268,0,0,1,.748-.55.5.5,0,0,1,.649.385,1.335,1.335,0,0,1-.319,1.089,2.894,2.894,0,0,0-.275.473q-.143.3-.286.561a13.605,13.605,0,0,1-.792,1.144q-.649.88-.77,1t-.3.275a3.879,3.879,0,0,0-.748.77A2.191,2.191,0,0,1-56.441,25a.7.7,0,0,1-.748-.165,3.973,3.973,0,0,1-.66-1.5,16.078,16.078,0,0,1-.55-2.123,10.344,10.344,0,0,0-.4-1.595,1.224,1.224,0,0,1,.066-.814A1.224,1.224,0,0,1-58.267,18.19Zm10.648.682a1.538,1.538,0,0,0-.825.473,5.133,5.133,0,0,0-.935,1.089q.044.264.726.264a2.313,2.313,0,0,0,.869-.1,3.533,3.533,0,0,0,.638-.55,1.609,1.609,0,0,0,.473-.627q0-.484-.7-.55Zm.154-1.606a2.5,2.5,0,0,1,1.892.627,1.789,1.789,0,0,1,.594,1.177v.176a3.691,3.691,0,0,1-.616,1.518,2.916,2.916,0,0,1-.946.979,2.429,2.429,0,0,1-1.276.451,6.038,6.038,0,0,1-1.221-.077,6.469,6.469,0,0,0-.715-.1.3.3,0,0,0-.242.154,1.831,1.831,0,0,0-.154.9,1.3,1.3,0,0,0,.341.858.98.98,0,0,0,.671.242,1.846,1.846,0,0,0,.748-.154,3.628,3.628,0,0,0,.825-.55,1.366,1.366,0,0,1,.737-.4.761.761,0,0,1,.528.264.859.859,0,0,1,.286.506,2.669,2.669,0,0,1-1.023,1.331A3.229,3.229,0,0,1-49.2,26a2.82,2.82,0,0,1-1.98-.7,2.576,2.576,0,0,1-.77-2q0-.506.055-1.078a5.4,5.4,0,0,1,.385-1.408A7.932,7.932,0,0,1-50.457,19,4.208,4.208,0,0,1-48.9,17.651,3.545,3.545,0,0,1-47.465,17.266Zm9.02.33a1.177,1.177,0,0,1,.572.22,1.316,1.316,0,0,1,.462.418q.572.99.176,1.5a1.628,1.628,0,0,1-1.606.726q-.11-.022-.264-.308a1.487,1.487,0,0,1-.176-.44q0-.11-.506.429t-.594.627a11.209,11.209,0,0,0-1.2,2.013q-.693,1.4-.869,1.837a6.377,6.377,0,0,1-.3.66.564.564,0,0,1-.231.264,1.033,1.033,0,0,1-.495-.055.981.981,0,0,1-.451-.187q-.836-.726-.044-1.892.154-.308.594-1.595t.506-1.441a.971.971,0,0,0-.044-.539.425.425,0,0,0-.374-.187q-.462,0-.462-.7a1.175,1.175,0,0,1,.506-.924,2.016,2.016,0,0,1,.9-.187,1.358,1.358,0,0,1,.836.187,2.72,2.72,0,0,1,.462,1.43q.154-.132.528-.539t.528-.561A3.316,3.316,0,0,1-38.445,17.6Zm3.058,13.64h-.44q-.33.066-.528-.374a1.033,1.033,0,0,1-.066-.572,3.576,3.576,0,0,1,.572-2.09,6.446,6.446,0,0,0,.418-.88,20.807,20.807,0,0,1,.957-1.892,19.332,19.332,0,0,0,1.089-2.266q-.484.506-1.034,1.177a4.916,4.916,0,0,1-.825.858.748.748,0,0,1-.55.143,1.5,1.5,0,0,1-.66-.363,1.464,1.464,0,0,1-.5-.671,8.282,8.282,0,0,1,.11-2.816A10.524,10.524,0,0,0-36.6,19.3a1.156,1.156,0,0,0-.374-.6q-.4-.55.506-1.034a1.511,1.511,0,0,1,.737-.066,1.138,1.138,0,0,1,.561.4,1.224,1.224,0,0,0,.132.231,1.926,1.926,0,0,1,.154.264q.044.1.11.275a1.814,1.814,0,0,1,.132.627q0,.275-.11,1.749-.176.7-.286,1.034t-.176.572a.878.878,0,0,0,0,.4,9.984,9.984,0,0,0,1.089-1.034q.451-.506,1.287-1.65A12.3,12.3,0,0,0-32.109,19q.418-.9.66-.946a.907.907,0,0,1,.5.088q.363.132.374.176t.418.077q.407.033.407.088t-.4.968a4.046,4.046,0,0,0-.363.979,9.208,9.208,0,0,1-.583,1.5,14.257,14.257,0,0,1-1.188,2.86q-.242.44-2.464,5.632Q-34.837,31.17-35.387,31.236ZM-23.243,18.63l.22-.836q.352-.682,1.232-3.069a22.084,22.084,0,0,0,.88-2.607.555.555,0,0,1,.132-.374.4.4,0,0,1,.308-.154.994.994,0,0,1,.638-.132l.352.352a1.247,1.247,0,0,1,.506.836,2.17,2.17,0,0,1-.143.759q-.143.385-.825,1.815-.088.242-.242.561t-.242.506a.872.872,0,0,0-.088.231.523.523,0,0,1-.033.143q-.033.1-.1.264t-.176.407a14.029,14.029,0,0,0-.88,2.145.432.432,0,0,1-.11.319q-.11,0-.11.176v.066a5.229,5.229,0,0,1-.352,1.166,20.617,20.617,0,0,0-.946,3.993,1.039,1.039,0,0,1-.506,1.045q-.638.176-1.034-.66a3.145,3.145,0,0,1-.132-2.046,3.028,3.028,0,0,0,.242-.924A10.348,10.348,0,0,1-24.2,21.1q.385-1.089.495-1.309.22,0,.22-.484A.837.837,0,0,1-23.243,18.63Zm3.63.088q.132-.33.594-.165a1.6,1.6,0,0,1,.792.671.872.872,0,0,1,.165.715,17.057,17.057,0,0,1-.5,2.024,7.753,7.753,0,0,0-.4,2.3,11.416,11.416,0,0,1-.176,1.364q-.088.374-.264.352a1.105,1.105,0,0,1-.913-.55,2.877,2.877,0,0,1-.473-1.364q.088-.836.132-1.188A42.049,42.049,0,0,1-19.613,18.718Zm1.672-4.84a3.677,3.677,0,0,1,1.012.308q.99,2.068-.44,2.662-.154.11-.418-.066a1.168,1.168,0,0,1-.583-.374q-.363-.352-.363-.462a3.936,3.936,0,0,1,.154-1.265Q-18.381,13.9-17.941,13.878Zm11.616,11.33-.484.11a1.11,1.11,0,0,1-.715-.077.832.832,0,0,1-.539-.6,2.917,2.917,0,0,1-.352-1.364q.066-.4.088-.66a3.483,3.483,0,0,1,.132-.7q0-.572-.066-.572-.176,0-.913.814a13.7,13.7,0,0,0-1.056,1.276q-.319.462-.451.7a3.38,3.38,0,0,0-.2.418.434.434,0,0,1-.6.264A1,1,0,0,1-12,24.471a.705.705,0,0,0-.22-.253.387.387,0,0,1-.154-.154,3.45,3.45,0,0,1,.286-1.386l.616-1.958q0-.154-1.1.792-1.21,1.408-2,2.5a6.328,6.328,0,0,1-1.111,1.3.371.371,0,0,1-.561-.121q-.022-.022-.264-.2t-.242-.3q0-.121-.11-.121-.132-.132.451-1.441a14.776,14.776,0,0,1,1.045-2.013.364.364,0,0,0,.132-.308,2.8,2.8,0,0,1,.308-.484,2.056,2.056,0,0,0,.308-1.166.19.19,0,0,0-.132-.066,5.458,5.458,0,0,0-.726.264,1.34,1.34,0,0,1-.748.352q-.242-.022-.451-.539a.648.648,0,0,1,.121-.8,9.068,9.068,0,0,1,.792-.55,4.678,4.678,0,0,1,1.21-.528q1.166-.33,1.562.616.66.836-.22,2.156-.088.176-.044.22t.3-.275q.253-.319.429-.319.11,0,.11-.2l.22-.2a1.542,1.542,0,0,0,.539-.33,1.3,1.3,0,0,1,.627-.33.676.676,0,0,1,.814.319,2.172,2.172,0,0,1,.33,1.265l-.462,1.188.792-.968a4.457,4.457,0,0,1,.528-.528q.044-.2.176-.2h.044a.078.078,0,0,0,.088-.088,1.286,1.286,0,0,1,.132-.11q.264-.154.286-.22a1.366,1.366,0,0,1,.9-.055,1.048,1.048,0,0,1,.748.561,2.034,2.034,0,0,0,.143.231,2.034,2.034,0,0,1,.143.231,1.31,1.31,0,0,1,.132.594q-.176,1.056-.2,1.232a1.463,1.463,0,0,0-.11.6,2.623,2.623,0,0,0,.022.451.156.156,0,0,0,.176.176,2.334,2.334,0,0,0,.99-.594q.352-.264.583-.11A.742.742,0,0,1-4.466,23a1.235,1.235,0,0,1-.22.8q-.3.572-.451.572a.955.955,0,0,0-.275.187q-.231.187-.3.231Q-6.083,25.208-6.325,25.208Zm2.728-.2-.11-.44q-.528-.264-.374-.726.308-.528,1.111-2.431t.891-2.189a.748.748,0,0,1,.308-.682q.418-.308.88.22a2,2,0,0,1,.462,1.364,6.769,6.769,0,0,1-.5,1.507q-.495,1.243-.979,2.222a10.481,10.481,0,0,1-.649,1.2.476.476,0,0,1-.385.22Zm2.86-11.132a1.837,1.837,0,0,1,.814.22,4.6,4.6,0,0,0,.572.858,1.764,1.764,0,0,1,.462.946q0,.946-1.056.946a1.576,1.576,0,0,1-1-.528A1.539,1.539,0,0,1-1.507,15.2a2.537,2.537,0,0,1,.385-.693A4.7,4.7,0,0,0-.737,13.878ZM6.479,16.1q0,.22.33.22a8.96,8.96,0,0,0,.946-.088,1.932,1.932,0,0,1,.286-.044.621.621,0,0,1,.4.044.984.984,0,0,1,.1.748q-.077.528-.3.616-.022,0-.462.132-.352.088-2,.242Q5.2,19.07,5.1,19.279a1.016,1.016,0,0,0-.1.253l-.924,1.936q-.088,0-.088.132.088.264-.022.352a1.769,1.769,0,0,0-.308.352q.11.11-.11.506a3.322,3.322,0,0,1-.308,1.122,4.8,4.8,0,0,0,.044.506q.022.11.11.088a3.071,3.071,0,0,0,.594-.022q.33-.154-.308,1.54a6.355,6.355,0,0,1-.693.891q-.363.385-.473.385Q.671,27.3.979,25.252a2.993,2.993,0,0,0,.11-.484,1.648,1.648,0,0,1,.242-.7.133.133,0,0,0,0-.2,5.05,5.05,0,0,1,.4-1.3q-.132-.176.11-.385T2,21.864q-.077-.11.077-.418t.363-.7a4.6,4.6,0,0,0,.253-.528,4.222,4.222,0,0,1,.363-.9q.385-.836.495-1.034.176-.088-.143-.143a9.173,9.173,0,0,0-1.265-.055,2.861,2.861,0,0,1-1.364-.242.617.617,0,0,1-.066-.726.748.748,0,0,1,.7-.462l2.816-.242.066-.374q.088-.132.165-.253l.1-.154a.431.431,0,0,0,.044-.1A1.7,1.7,0,0,0,4.7,15.11a2.784,2.784,0,0,0,.44-1.122,7.162,7.162,0,0,0,.528-.924q.66-1.364,1.606-.748.66.44.594.836a1.139,1.139,0,0,1-.154.451,4.591,4.591,0,0,0-.308.759,2.623,2.623,0,0,0-.572,1.188A2.029,2.029,0,0,1,6.479,16.1Zm5.3,2.772a1.538,1.538,0,0,0-.825.473,5.133,5.133,0,0,0-.935,1.089q.044.264.726.264a2.313,2.313,0,0,0,.869-.1,3.533,3.533,0,0,0,.638-.55,1.609,1.609,0,0,0,.473-.627q0-.484-.7-.55Zm.154-1.606a2.5,2.5,0,0,1,1.892.627,1.789,1.789,0,0,1,.594,1.177v.176a3.691,3.691,0,0,1-.616,1.518,2.916,2.916,0,0,1-.946.979,2.429,2.429,0,0,1-1.276.451,6.038,6.038,0,0,1-1.221-.077,6.469,6.469,0,0,0-.715-.1.3.3,0,0,0-.242.154,1.831,1.831,0,0,0-.154.9,1.3,1.3,0,0,0,.341.858.98.98,0,0,0,.671.242,1.846,1.846,0,0,0,.748-.154,3.628,3.628,0,0,0,.825-.55,1.366,1.366,0,0,1,.737-.4.761.761,0,0,1,.528.264.859.859,0,0,1,.286.506,2.669,2.669,0,0,1-1.023,1.331A3.229,3.229,0,0,1,10.2,26a2.82,2.82,0,0,1-1.98-.7,2.576,2.576,0,0,1-.77-2q0-.506.055-1.078a5.4,5.4,0,0,1,.385-1.408A7.933,7.933,0,0,1,8.943,19,4.208,4.208,0,0,1,10.5,17.651,3.545,3.545,0,0,1,11.935,17.266Zm4.356,6.248a.252.252,0,0,0,.154.319,1.032,1.032,0,0,0,.66-.1,4.855,4.855,0,0,0,1.1-.649,5.054,5.054,0,0,0,.935-.847,2.848,2.848,0,0,0,.473-.957.92.92,0,0,0-.33-1.023q-.616-.484-1.474.308A5.252,5.252,0,0,0,16.291,23.514ZM21.373,26.2a.886.886,0,0,1-.319.165q-.143.033-.4.077a.661.661,0,0,1-.517-.154,1.31,1.31,0,0,1-.4-.462,8.049,8.049,0,0,1-.242-2.156l-.9.814a3.955,3.955,0,0,1-2.574,1.3,2,2,0,0,1-.891-.594,3.012,3.012,0,0,1-.693-.9,3.385,3.385,0,0,1,.2-2.1,6.507,6.507,0,0,1,1.254-2.365,3.214,3.214,0,0,1,1.8-1.375,2.279,2.279,0,0,1,1.914.187q.7.352.792-.132.022-.088.605-1.892a34.127,34.127,0,0,1,1.595-3.96q.44-.924.9-.88a1.321,1.321,0,0,1,.627.187,1.046,1.046,0,0,1,.484.55.92.92,0,0,1-.1.8,23.335,23.335,0,0,0-1.408,3.234q-.836,2.244-1.188,3.52a14.227,14.227,0,0,0-.429,3.146,8.12,8.12,0,0,0,.055,2.156,3.18,3.18,0,0,1,.033.539A.358.358,0,0,1,21.373,26.2Zm7.5-6.93q-.088,0-.088-.33v-.11q0-.066-.1-.132a.584.584,0,0,1-.154-.143q-.055-.077.121-.319t.319-.264q.143-.022.484-.066t.6-.088a1.641,1.641,0,0,0,1.012-.484,11.42,11.42,0,0,1,1.21-2.574q.946-.484,1.386.22a1.174,1.174,0,0,0,.143.165q.1.1.1.143a1.723,1.723,0,0,1-.044.242,20.422,20.422,0,0,1-.946,1.936,2.783,2.783,0,0,0,.7,0,2.9,2.9,0,0,1,1.034-.066q.924,0,1.012,1.012.11.594-.99.594a9.391,9.391,0,0,0-2.288.2,1.925,1.925,0,0,0-.352.682,12.2,12.2,0,0,0-.4,1.166q-.594,2.75.022,3.41.33.33,1.364-.506a.712.712,0,0,1,.693-.2.5.5,0,0,1,.352.473,1.324,1.324,0,0,1-.209.781,2.67,2.67,0,0,1-1.232.946,2.075,2.075,0,0,1-1.353.2A3.8,3.8,0,0,1,30,25.318a2.16,2.16,0,0,1-.429-.836,4.678,4.678,0,0,1-.077-.924V22.92a22.981,22.981,0,0,1,.682-3.234q.066-.242-.209-.319a2.183,2.183,0,0,0-.649-.066A1.115,1.115,0,0,1,28.875,19.268Zm7.92-.55q.132-.33.594-.165a1.6,1.6,0,0,1,.792.671.872.872,0,0,1,.165.715,17.058,17.058,0,0,1-.495,2.024,7.753,7.753,0,0,0-.4,2.3,11.416,11.416,0,0,1-.176,1.364q-.088.374-.264.352a1.105,1.105,0,0,1-.913-.55,2.877,2.877,0,0,1-.473-1.364q.088-.836.132-1.188A42.049,42.049,0,0,1,36.795,18.718Zm1.672-4.84a3.677,3.677,0,0,1,1.012.308q.99,2.068-.44,2.662-.154.11-.418-.066a1.168,1.168,0,0,1-.583-.374q-.363-.352-.363-.462a3.936,3.936,0,0,1,.154-1.265Q38.027,13.9,38.467,13.878Zm11.748,11.33a3.277,3.277,0,0,1-1.177-.253q-.649-.253-.649-.737V22.854q0-.88-.154-1.012-.33-.176-.88.5a17.141,17.141,0,0,0-1.3,1.9q-.748,1.232-1.232.9a.8.8,0,0,1-.638-1.056q.572-1.87.792-2.948-.176-.286-.726.088-.066.044-.209.132t-.242.154a2.79,2.79,0,0,0-.231.176,14.3,14.3,0,0,0-1.111,1.573,9.975,9.975,0,0,1-1.111,1.529,1.21,1.21,0,0,1-.286.495.359.359,0,0,1-.374-.011,1.393,1.393,0,0,1-.924-1.375,13.635,13.635,0,0,1,.638-3.223,2.674,2.674,0,0,0,.374-1.276,10.865,10.865,0,0,1,.264-1.133,2.469,2.469,0,0,1,.286-.781q.154-.176.638-.121a.7.7,0,0,1,.616.341q.572.594.066,2.024A11.106,11.106,0,0,0,42.1,21.2,12.909,12.909,0,0,1,43.5,19.488a2.922,2.922,0,0,1,.891-.682,1.958,1.958,0,0,1,.8-.242,1.452,1.452,0,0,1,.891.517,2.175,2.175,0,0,1,.451,1.177l-.11,1.144a9.814,9.814,0,0,1,1.342-1.43q.924-.7,1.518-.088a1.9,1.9,0,0,1,.825,1.078,3.6,3.6,0,0,1,.187,1.606,3.951,3.951,0,0,0,.176,1.65.733.733,0,0,1,.077.693Q50.413,25.208,50.215,25.208Zm6.314-6.05q-.286-.286-.836.11a1.944,1.944,0,0,0-.6.4,4.966,4.966,0,0,0-.649.66q-.264.33-.154.4-.022.044.055.066a1.1,1.1,0,0,0,.2.033l.231.022a1.559,1.559,0,0,0,.407-.055,1.884,1.884,0,0,0,.594-.253,2.844,2.844,0,0,0,.693-.737Q56.639,19.268,56.529,19.158Zm-.44,3.08a4.46,4.46,0,0,1-1.067.11,1.986,1.986,0,0,1-.825-.11q-.242-.132-.352.33l-.066.484a1.1,1.1,0,0,0,.286.968.59.59,0,0,0,.55.187,1.238,1.238,0,0,0,.66-.253,5.271,5.271,0,0,0,.616-.572,3.987,3.987,0,0,1,.484-.462q.22-.4,1.1-.154.484.352-.132,1.452a3.63,3.63,0,0,1-.671.748,5.853,5.853,0,0,1-.891.726,2.938,2.938,0,0,1-2.464.11q-1.65-.66-1.364-3.256a2.826,2.826,0,0,0-.033-.891.77.77,0,0,0-.22-.374l-.3-.253q-.352-.33-.363-.462a.89.89,0,0,1,.077-.363.646.646,0,0,1,.154-.275,2.252,2.252,0,0,1,.583-.209.9.9,0,0,1,.264.121q.187.11.187.2.11.22.484-.462l.2-.4a4.522,4.522,0,0,1,.836-.913,4.944,4.944,0,0,1,.847-.616,3.639,3.639,0,0,1,.913-.286,3.369,3.369,0,0,1,.836-.1,2.522,2.522,0,0,1,1.518.9,1.338,1.338,0,0,1,.462,1.023,2.054,2.054,0,0,1-.176,1.177,2.763,2.763,0,0,1-.869,1A5.193,5.193,0,0,1,56.089,22.238Zm3.278.7a1.524,1.524,0,0,1,.638-.275,1.615,1.615,0,0,1,.638.165q.748.462.66,1.023t-.968,1a1.473,1.473,0,0,1-1.452-.132Q58,23.888,59.367,22.942Z" transform="translate(1177.5 6815.438)" fill="#002e8c"></path></g></svg>