<svg xmlns="http://www.w3.org/2000/svg" width="123.165" height="21.735" viewBox="0 0 123.165 21.735"><path d="M13.409-16.146a2.973,2.973,0,0,1,1.679.644q1.633,1.265.368,3.427a4.53,4.53,0,0,1-1.61,1.725,1.482,1.482,0,0,1-1.1.069.6.6,0,0,1-.437-.621,2.871,2.871,0,0,1,.851-1.357q1.265-1.863.437-2.047a4.451,4.451,0,0,0-1.461.184q-1.093.253-1.092.368l-.092.115a6.8,6.8,0,0,0-1.3.759,7.259,7.259,0,0,0-1.253.9q-.046.253-.529.46a2.747,2.747,0,0,0-.747.69,12.6,12.6,0,0,0-.862,1.38A3.353,3.353,0,0,0,5.7-8.326a1.417,1.417,0,0,0,.517,1.633,9.99,9.99,0,0,0,1.53.966A16.643,16.643,0,0,1,9.867-4.312a4.2,4.2,0,0,1,1.15,1.184A3.036,3.036,0,0,1,11.2-.483a3.72,3.72,0,0,1-.529.816Q10.35.713,10.1.69a1.506,1.506,0,0,0-.425.173q-.219.127-.368.218a6.208,6.208,0,0,1-1.288.265,10.876,10.876,0,0,1-1.9.149L5.2,1.219a.178.178,0,0,0-.046-.207A.527.527,0,0,0,4.83.9,4.143,4.143,0,0,1,3.8-.126a5.481,5.481,0,0,1-.655-.989,1.9,1.9,0,0,1-.115-.357.17.17,0,0,1,.046-.149A.35.35,0,0,1,3.186-1.7q.057-.023.184-.081t.2-.081q.759-.506,1.012.023a2.549,2.549,0,0,0,1.6,1.2A3.707,3.707,0,0,0,8.6-.782q1.058-.46.253-1.748a1.583,1.583,0,0,0-.494-.552q-.4-.322-.748-.644-.506-.23-1.161-.552A6.673,6.673,0,0,1,5.083-5.21a4.085,4.085,0,0,1-.989-1.138,2.114,2.114,0,0,1-.506-1.576,4.194,4.194,0,0,1,.506-1.92,10.031,10.031,0,0,1,1.334-1.909,8.6,8.6,0,0,1,1.564-1.61l.736-.69a1.437,1.437,0,0,1,.253-.115,3.661,3.661,0,0,0,1.1-.713A10.542,10.542,0,0,1,13.409-16.146Zm4.9,11.661a3.571,3.571,0,0,0,.138-.357,2.4,2.4,0,0,1,.173-.4,1.869,1.869,0,0,0,.092-.7q.012-.563-.172-.678a.62.62,0,0,0-.414-.069,2.24,2.24,0,0,0-.529.3A5.7,5.7,0,0,0,15.5-3.243a1.267,1.267,0,0,0,.127.862q.2.288.656.15a2.01,2.01,0,0,0,.828-.495q.368-.356.483-.471t.2-.207a1.137,1.137,0,0,0,.161-.264q.081-.173.126-.253a2.441,2.441,0,0,0,.126-.288Q18.285-4.416,18.308-4.485ZM15.709-7.5a5.079,5.079,0,0,1,2.07-1.2q1.38-.322,1.932.253a1.832,1.832,0,0,1,1.035,1.633,6.019,6.019,0,0,1-1.265,4A7.392,7.392,0,0,1,17.135-.667a4.4,4.4,0,0,1-2.116.506,1.466,1.466,0,0,1-.9-.437,2.388,2.388,0,0,1-.9-1.909l.046-.529q-.115-.115-.057-.184t.08-.092q.138,0,.092-.219a2,2,0,0,1,.161-.839,5.622,5.622,0,0,1,.529-1.15A7.586,7.586,0,0,1,15.709-7.5Zm7.544-.207.23-.874q.368-.713,1.288-3.208a23.088,23.088,0,0,0,.92-2.726.58.58,0,0,1,.138-.391.414.414,0,0,1,.322-.161,1.039,1.039,0,0,1,.667-.138l.368.368a1.3,1.3,0,0,1,.529.874,2.268,2.268,0,0,1-.149.793q-.15.4-.863,1.9-.092.253-.253.587t-.253.529a.911.911,0,0,0-.092.241.547.547,0,0,1-.034.149q-.035.1-.1.276t-.184.425a14.666,14.666,0,0,0-.92,2.243.452.452,0,0,1-.115.333q-.115,0-.115.184v.069a5.466,5.466,0,0,1-.368,1.219A21.554,21.554,0,0,0,23.276-.84,1.086,1.086,0,0,1,22.747.253q-.667.184-1.081-.69a3.288,3.288,0,0,1-.138-2.139,3.166,3.166,0,0,0,.253-.966,10.818,10.818,0,0,1,.472-1.575q.4-1.139.517-1.369.23,0,.23-.506A.875.875,0,0,1,23.253-7.705ZM29.532-3.45a11.854,11.854,0,0,0,1.115-1.334A4.344,4.344,0,0,0,31.4-5.946q0-.172-.356-.311a1.173,1.173,0,0,0-.725-.046,4.325,4.325,0,0,0-1.84,1.575A5.775,5.775,0,0,0,27.14-2.254q-.092.414.115.414a1.3,1.3,0,0,0,.391-.058,1.43,1.43,0,0,0,.414-.23q.23-.173.345-.264t.437-.4Q29.164-3.105,29.532-3.45Zm3.289.322a12.464,12.464,0,0,0-.092,1.817q0,1.265-.23,1.288-.989.138-1.311-.253a1.147,1.147,0,0,1-.46-.828q.023-.368.023-.736v-.437q-.115-.046-.322.161-.253.253-.667.6A5.381,5.381,0,0,1,28.118-.126a2.857,2.857,0,0,1-1.6.219,1.3,1.3,0,0,1-.978-.828,2.79,2.79,0,0,1-.287-1.587,6.961,6.961,0,0,1,1.127-2.99,5.222,5.222,0,0,1,1.357-1.449Q29.762-8.4,31.326-7.889q.667.322.805-.069a3.284,3.284,0,0,0,.2-.449,4.225,4.225,0,0,1,.242-.54q.6-1.794,1.058-2.84t.713-1.645q.782-1.518,1.472-1.058a2.727,2.727,0,0,1,.449.414,1.268,1.268,0,0,1,.218.575,1.6,1.6,0,0,1-.253.989,30.4,30.4,0,0,0-1.817,3.956q-.023.115-.219.77t-.322,1.3q-.126.644-.264.644A6.593,6.593,0,0,0,32.821-3.128Zm17.756-8.694q-.575,0-.667-.184-.046,0-.046-.069,0-.138.161-.138a2.39,2.39,0,0,0,.425-.46,1.1,1.1,0,0,0,.287-.621q0-.368-.644-.368a3.547,3.547,0,0,0-2.07.621,3.852,3.852,0,0,0-1.265,1.322,2.423,2.423,0,0,0-.357,1q.012.3.035.506a2.2,2.2,0,0,0,.184.828q1.84,2.576,1.84,2.6v.092a2.588,2.588,0,0,1,.368.621,3.039,3.039,0,0,1,.322.736,2.288,2.288,0,0,1,.173.322q.058.138.126.3t.126.333a3.832,3.832,0,0,1,.1.38l.092.414a4.249,4.249,0,0,1,.092.92,4.331,4.331,0,0,1-.311,1.15,2.765,2.765,0,0,1-.632,1.012A7.082,7.082,0,0,1,47.4.529a9.8,9.8,0,0,1-4.761,1.127,2.985,2.985,0,0,1-1.909-.7,2.234,2.234,0,0,1-.874-1.828,1.9,1.9,0,0,1,.391-1.15,1.1,1.1,0,0,1,.874-.529,1.284,1.284,0,0,1,.828.276,5.475,5.475,0,0,0-.276,1.23.677.677,0,0,0,.356.552,1.972,1.972,0,0,0,1.092.242,5.992,5.992,0,0,0,3.507-.8A2.352,2.352,0,0,0,47.725-2.99a3.035,3.035,0,0,0-.218-1.069q-.149-.265-.322-.621t-.333-.678a7.6,7.6,0,0,0-1.012-1.288,4.328,4.328,0,0,0-.966-1.495,1.9,1.9,0,0,1-.184-.391.9.9,0,0,0-.161-.322,3.793,3.793,0,0,1-.2-.391,1.984,1.984,0,0,1-.173-.851,4.347,4.347,0,0,1,1.1-2.691,5.7,5.7,0,0,1,.909-1.127A3.693,3.693,0,0,1,47-14.674a4.279,4.279,0,0,0,.851-.391,2.85,2.85,0,0,1,1.253-.391,3.45,3.45,0,0,1,1.035-.23l.506.023a3.313,3.313,0,0,1,1.829.989,2.6,2.6,0,0,1,.425,1.541,1.189,1.189,0,0,1-.69.977,2.31,2.31,0,0,1-1.069.426A1.316,1.316,0,0,1,50.577-11.822ZM54.6-5.635a.431.431,0,0,1,.2-.046q.1,0,.287.276a.577.577,0,0,0,.506.276,1.3,1.3,0,0,0,1.069-.552,1.666,1.666,0,0,0,.425-.943q0-.828-.46-.828a1.5,1.5,0,0,0-.874.368,3.5,3.5,0,0,0-.851.966Zm1.7-3.542q2.576,0,2.576,2.139a3.782,3.782,0,0,1-1.023,2.346,2.8,2.8,0,0,1-2.07,1.242,2.478,2.478,0,0,1-1.759-.667,3.04,3.04,0,0,0-.391,1.265q0,.483.012.621a2.351,2.351,0,0,0,.081.391.527.527,0,0,0,.563.414,2.662,2.662,0,0,0,.724-.081,2.176,2.176,0,0,0,.4-.149,3.906,3.906,0,0,0,.391-.265,5.434,5.434,0,0,1,.46-.311q.2-.115.379-.23t.253-.161a1.1,1.1,0,0,1,.253-.115,1.11,1.11,0,0,1,.644.207.581.581,0,0,1,.3.471,1.528,1.528,0,0,1-.414.782,2.5,2.5,0,0,1-.851.725l-.253.138a.556.556,0,0,1-.414.276h-.184q-.092.184-.61.368A2.922,2.922,0,0,1,54.4.414q-2.622,0-2.622-2.99a7.869,7.869,0,0,1,1.15-3.749Q54.51-9.177,56.3-9.177ZM65.3-6.141a.707.707,0,0,0-.736-.345,4.3,4.3,0,0,0-1.472.575q-.621.23-.713.483-.207.506-.449,1.058a1.555,1.555,0,0,0-.2.782,1.086,1.086,0,0,0,.771.023,4.44,4.44,0,0,0,1.3-.517q.713-.4.8-.793a5.263,5.263,0,0,0,.794-1A.254.254,0,0,0,65.3-6.141ZM58.765,5.589a2.644,2.644,0,0,1-.817-.633q-.54-.541-.541-.816a19.067,19.067,0,0,1,.46-2.2q.46-1.921.678-2.53t.357-.955q.391-.989.644-1.84t.9-2.438q.644-1.587.771-1.955T61.5-8.6q.368-.943.46-1.1.092-.276,1.012-.529a.62.62,0,0,1,.713.345q.207.368-.184,1.334l-.161.46.828-.184q1.61.092,1.794.138a1.356,1.356,0,0,1,.725.184,1.716,1.716,0,0,1,.425.506,1.473,1.473,0,0,1,.46.69,2.869,2.869,0,0,1-.483,1.955,4.667,4.667,0,0,1-1.4,1.7l-.6.3q-.069.184-1,.667a4.889,4.889,0,0,1-1.61.564,1.626,1.626,0,0,1-.863-.035q-.437-.092-.437.046-.115.276-.219.495t-.218.517q-1.587,4.968-1.725,5.4A4.845,4.845,0,0,1,58.765,5.589Zm14.7-11.845q-.092-.253-.23-.276a1.4,1.4,0,0,0-.575.161,6.055,6.055,0,0,0-1.576,1.817,4.67,4.67,0,0,0-.909,1.978l.115.23a2.656,2.656,0,0,0,1.047-.586,7.062,7.062,0,0,0,.954-.782q.161-.2.334-.448a5.984,5.984,0,0,1,.494-.609,2.2,2.2,0,0,0,.449-.7A.948.948,0,0,0,73.462-6.256ZM72.45-8.372a2.3,2.3,0,0,1,.621-.253,2.3,2.3,0,0,1,.621.253,2.175,2.175,0,0,1,1.242.69,5.066,5.066,0,0,1,.437,1.472q.23.782,0,1.012a1.741,1.741,0,0,0-.126.161q-.012.023.035.069a.741.741,0,0,1-.115.322,3.232,3.232,0,0,0-.23,1.748q.368,1.081,1.311.184a.979.979,0,0,1,.632-.253q.264.023.264.138a.331.331,0,0,0,.23.115q.092.023.092.23a1.9,1.9,0,0,1-.276.943q-.345.345-.345.46-.115.115-.345.322a1.977,1.977,0,0,1-1.047.253,1.631,1.631,0,0,1-.978-.253,2.572,2.572,0,0,1-1.1-1.311l-.115-.23-.667.437-.575.6q-.184.23-.322.23h-.23q0,.161-.644.391a3.244,3.244,0,0,1-1.012.23q-.391.092-.943-.414a1.92,1.92,0,0,1-.644-.943A4.077,4.077,0,0,1,68.552-3.9,9.262,9.262,0,0,1,70.116-6.52,6.349,6.349,0,0,1,72.45-8.372Zm7.728-.575a1.008,1.008,0,0,1,.736-.23.979.979,0,0,1,.69.184q.506.437-.713,2.806-.391.782-.253.782a5.157,5.157,0,0,1,1.23-1.2A11.482,11.482,0,0,1,83.1-7.487q.253-.126.54-.241t.334-.138a2.105,2.105,0,0,1,1.15-.2q.644.057.782.4a.415.415,0,0,0,.276.368l.115.138q0,.184-.322.472a1.112,1.112,0,0,1-.667.31,2.385,2.385,0,0,0-.817.242q-.471.218-.909.46t-.655.368q-.219.127-.563.333a5.672,5.672,0,0,0-1.15,1.035,4.917,4.917,0,0,0-.713.8,2.125,2.125,0,0,0-.333.84,5.111,5.111,0,0,0-.173.84,1.932,1.932,0,0,1-.345.7,1.033,1.033,0,0,1-.494.4q-.242.069-.632-.276A1.235,1.235,0,0,1,77.89-1.76q.08-.609.471-2.266a13.868,13.868,0,0,1,.725-2.45A12.524,12.524,0,0,1,80.178-8.947ZM91.494-7.13q-.851,0-2.806,3.289a6.207,6.207,0,0,0-.621,1.449q.368.046,1.426-.828.207-.184.563-.483t.518-.437q.161-.138.414-.368a6.548,6.548,0,0,0,.782-.943l.506-.828Q91.885-7.13,91.494-7.13Zm-5.4,6a1.074,1.074,0,0,0-.3-.575q-.345-.345,1.426-3.588a3.007,3.007,0,0,0,.356-.483,1.847,1.847,0,0,1,.288-.391.261.261,0,0,1,.069-.173.207.207,0,0,1,.161-.081l.184-.368a5.585,5.585,0,0,1,.9-.989,8.459,8.459,0,0,1,1.288-1.081,1.7,1.7,0,0,1,.989-.276,1.452,1.452,0,0,1,.874.322,1.53,1.53,0,0,0,.3.253q.437.345,1.955,1.7L94.185-5.7A3.112,3.112,0,0,0,94.461-2.9a.994.994,0,0,0,.782.575q.552.092.552.506,0,.943-.621,1.081a2.442,2.442,0,0,1-2.691-1.472,2.287,2.287,0,0,1-.414-1.012,4.906,4.906,0,0,1-.529.6Q88.412.552,86.8-.483a1.3,1.3,0,0,0-.391-.368Q86.089-1.081,86.089-1.127ZM97.014-7.038q-.092,0-.092-.345V-7.5q0-.069-.1-.138a.61.61,0,0,1-.161-.15q-.058-.08.126-.333t.334-.276q.149-.023.506-.069t.632-.092a1.716,1.716,0,0,0,1.058-.506,11.939,11.939,0,0,1,1.265-2.691q.989-.506,1.449.23a1.227,1.227,0,0,0,.149.172q.1.1.1.149a1.8,1.8,0,0,1-.046.253,21.347,21.347,0,0,1-.989,2.024,2.91,2.91,0,0,0,.736,0,3.027,3.027,0,0,1,1.081-.069q.966,0,1.058,1.058.115.621-1.035.621a9.818,9.818,0,0,0-2.392.207,2.012,2.012,0,0,0-.368.713,12.753,12.753,0,0,0-.414,1.219q-.621,2.875.023,3.565.345.345,1.426-.529a.744.744,0,0,1,.725-.207.527.527,0,0,1,.368.494,1.384,1.384,0,0,1-.218.816,2.791,2.791,0,0,1-1.288.989,2.169,2.169,0,0,1-1.414.207,3.972,3.972,0,0,1-1.346-.874,2.258,2.258,0,0,1-.448-.874,4.89,4.89,0,0,1-.081-.966V-3.22A24.026,24.026,0,0,1,98.371-6.6q.069-.253-.219-.333A2.282,2.282,0,0,0,97.474-7,1.165,1.165,0,0,1,97.014-7.038Zm9.637,1.4a.431.431,0,0,1,.2-.046q.1,0,.288.276a.577.577,0,0,0,.506.276,1.3,1.3,0,0,0,1.069-.552,1.666,1.666,0,0,0,.426-.943q0-.828-.46-.828a1.5,1.5,0,0,0-.874.368,3.5,3.5,0,0,0-.851.966Zm1.7-3.542q2.576,0,2.576,2.139a3.782,3.782,0,0,1-1.023,2.346,2.8,2.8,0,0,1-2.07,1.242,2.478,2.478,0,0,1-1.76-.667,3.04,3.04,0,0,0-.391,1.265q0,.483.012.621a2.352,2.352,0,0,0,.08.391.527.527,0,0,0,.563.414,2.662,2.662,0,0,0,.725-.081,2.176,2.176,0,0,0,.4-.149,3.905,3.905,0,0,0,.391-.265,5.435,5.435,0,0,1,.46-.311q.2-.115.38-.23t.253-.161a1.1,1.1,0,0,1,.253-.115,1.11,1.11,0,0,1,.644.207.581.581,0,0,1,.3.471,1.528,1.528,0,0,1-.414.782,2.5,2.5,0,0,1-.851.725l-.253.138a.556.556,0,0,1-.414.276h-.184q-.092.184-.609.368a2.922,2.922,0,0,1-.978.184q-2.622,0-2.622-2.99a7.869,7.869,0,0,1,1.15-3.749Q106.559-9.177,108.353-9.177Zm3.105,6.739a25.143,25.143,0,0,1,.851-3.427q.138-.437.253-.8a10.653,10.653,0,0,1,1.288-3.013q.023-.046.069-.172t.069-.172a1.255,1.255,0,0,1,.161-.644,3.658,3.658,0,0,0,.414-.805l.644-1.311a1.343,1.343,0,0,1,.736-.874l-.023-.023a.927.927,0,0,1,.425-.322,1.368,1.368,0,0,1,.541-.138.6.6,0,0,1,.667.69,1.372,1.372,0,0,1-.184.828h.023a3.744,3.744,0,0,1-.4.92,21.074,21.074,0,0,0-1.024,1.863,17.143,17.143,0,0,0-1.242,2.76q-.046.092-.173.391t-.149.345l-.368,1.426-.092.483q-.368,1.012-.414,1.242a2.708,2.708,0,0,0-.127.414,4.488,4.488,0,0,1-.173.552,8.427,8.427,0,0,0-.391,1.909l-.023.092a1.447,1.447,0,0,1-.287.759.514.514,0,0,1-.563.161,1.069,1.069,0,0,1-.7-1.093A8.919,8.919,0,0,1,111.458-2.438Zm.782,5.428a.829.829,0,0,1,.621-.3,1.06,1.06,0,0,1,.506.092,2.166,2.166,0,0,0,1.645.448,2.963,2.963,0,0,0,1.622-1.322Q117.6.368,118.105-.552a2.877,2.877,0,0,1-.92-.931q-.437-.656-.368-.909v-.253q-.253,0-.334-1.426a13.406,13.406,0,0,1-.011-2.012q.069-.586.161-2.1a.965.965,0,0,1,.414-.9.844.844,0,0,1,1.23.379,4.721,4.721,0,0,1,.288,2.427q-.207,3.128.437,3.864a2.265,2.265,0,0,1,.345-.69,5.582,5.582,0,0,0,.345-.793,1.066,1.066,0,0,1,.115-.3q.092-.172.46-.908.6-1.725.736-1.967t.218-.414q.081-.172.127-.265t.115-.218q.069-.126.115-.2a.914.914,0,0,1,.115-.138.509.509,0,0,1,.207-.161.711.711,0,0,1,.828-.023,4.042,4.042,0,0,1,.483.552q.322.552-.276,1.656a5.312,5.312,0,0,1-.736,1.587q-.759,1.748-1.368,2.967T119.945.207a33.458,33.458,0,0,1-2.07,3.059,5.77,5.77,0,0,1-2.3,1.518,4.422,4.422,0,0,1-2.265-.08q-1.07-.334-1.23-.932A.756.756,0,0,1,112.24,2.99ZM124.154-3.2a1.593,1.593,0,0,1,.667-.287,1.688,1.688,0,0,1,.667.173q.782.483.69,1.069T125.166-1.2a1.54,1.54,0,0,1-1.518-.138Q122.728-2.208,124.154-3.2Z" transform="translate(-3.023 16.146)" fill="#fff"></path></svg>